# File generated by ImageToStl.com - Free Image and 3D model conversion tools

o obj1
v 0.01673491 0.09012892 0.06443186
v 0.01713425 -0.08927123 0.06361439
v 0.03158979 -0.00055852 0.00621423
v -0.01705367 -0.09552478 0.0221212
v -0.01751038 -0.09790762 0.05166616
v -0.0315975 -0.0019865 0.00115293
v -0.02598099 0.07576972 -0.00508223
v -0.03163592 -0.00057873 0.00597307
v 0.01703316 -0.09680226 0.03032204
v 0.03161578 -0.00186086 0.00117971
v 0.0175851 -0.09740705 0.05198465
v 0.01855586 0.09460194 0.05661729
v -0.01680417 -0.09190612 0.00629548
v -0.01681224 -0.0875329 -0.00120645
v 0.01623011 -0.09953752 0.05158409
v -4.108E-05 -0.10398972 0.00569088
v -1.727E-05 -0.1037427 -0.0091993
v -0.00361677 -0.10115781 -0.01261032
v -0.00342956 -0.10259785 -0.0089643
v -0.02527036 0.08206511 0.00519704
v -0.02801087 0.0417843 -0.0063964
v -0.00011257 0.09280849 0.06596215
v -0.01256671 0.09371249 0.06516847
v -0.01442196 0.09127646 0.06568974
v -0.01725466 -0.09070031 0.06308201
v -0.01547171 -0.09070633 0.0651901
v -0.01676724 0.09025221 0.0643322
v 0.01695553 -0.09160291 0.00556283
v 0.01760716 -0.09384757 0.05844849
v 0.01250568 -0.10018752 0.05689415
v 0.01555092 0.10019979 0.0546726
v 0.01926883 0.09849357 0.04494174
v 0.01621838 0.10028522 0.04586977
v 0.00191744 -0.04551994 -0.02565943
v 0.02801508 0.04204235 -0.0063496
v 0.00381034 -0.08296619 -0.02444934
v 0.02067088 0.09369184 0.04330829
v 0.02544794 0.08118051 0.0035006
v -0.00363682 -0.08358591 -0.02460626
v -0.01653269 -0.08223628 -0.00511811
v -0.01401712 -0.10009112 0.05602695
v -0.01601313 -0.09962863 0.04930143
v -0.00321509 -0.08776598 -0.02388439
v -0.01298793 -0.09249575 0.06571195
v -0.00050564 -0.09294531 0.06595311
v 0.01353958 0.09267214 0.06568788
v 0.01342481 -0.09192701 0.06573131
v -0.01922922 0.09726057 0.05058843
v 0.01655822 -0.08513217 -0.00387274
v 0.00349477 -0.10271564 -0.00802934
v 0.02386916 0.0904014 0.00436824
v 0.0227078 0.09373555 0.01434002
v 0.0260343 0.07529758 -0.00503085
v 0.02481675 0.07437754 -0.0071557
v -0.00150015 -0.04586985 -0.0259248
v -0.00083377 0.08025997 -0.00732172
v 0.0229591 0.07790138 -0.00739904
v -0.02276113 0.08017436 -0.00690954
v 3.181E-05 -0.09945143 -0.01716121
v -0.01663215 -0.09855399 0.05473394
v 0.00360213 -0.10119468 -0.01262764
v -0.00161673 0.09747106 0.06230734
v 0.01571838 -0.09177957 0.06491254
v -0.01844868 0.09201553 0.05839317
v -0.00062699 -0.08797474 -0.0249616
v 0.003076 -0.08797289 -0.02397873
v 0.01980205 0.09701106 0.02091398
v 0.00994155 0.10003474 0.0583408
v 0.01712945 0.09906722 0.05430516
v -0.00031413 0.09461535 0.00757466
v -1.595E-05 0.09849606 0.02708179
v -0.00033732 0.08656162 -0.00416328
v 0.02231429 0.08824997 -0.0019332
v 0.02237698 0.0833552 -0.00552611
v -0.02132496 0.0909269 0.0009798
v -0.02273278 0.08543447 -0.00412033
v -0.02449525 0.08589235 -0.00183273
v 0.00184279 -0.08400231 -0.0255249
v -0.02465025 0.076668 -0.00693213
v 0.01313873 -0.09406289 0.06468318
v -0.00932387 -0.09998264 0.0584892
v -0.01906679 0.09769714 0.02462748
v -0.00449439 0.10042588 0.05811909
v -0.0146231 0.10016821 0.05573492
v 0.01580491 -0.09941626 0.05497027
v 0.02134259 0.09433313 0.00894201
v -0.00017341 0.09099504 0.00057678
v 0.0214829 0.09179468 0.00268413
v 0.02451517 0.08170259 -0.00505142
v 0.02472939 0.0857401 -0.00123169
v -0.02065764 0.09466791 0.00953798
v 0.00119059 -0.10030148 0.05862313
v 0.0004696 -0.09665588 0.06307836
v 0.0153969 0.09290559 0.06455627
v -0.00086783 -0.08254847 -0.0258702
v -0.02355578 0.09116632 0.00460792
v -0.01461703 -0.09344169 0.06450005
v -0.02302609 0.09289686 0.00987686
v -0.02182214 0.09544171 0.02175636
v -0.01819264 0.09951794 0.04381417
v -0.01604552 0.09320926 0.06361687
v -0.01699485 0.09936286 0.05411479
vn 0.96934 0.00104 0.24572
vn -0.98676 -0.15973 -0.02814
vn -0.99716 0.06976 -0.02832
vn 0.98657 -0.16063 -0.02962
vn 0.99137 -0.12558 0.0376
vn 0.97256 0.01011 0.23241
vn -0.98126 -0.16694 -0.09626
vn -0.99109 -0.12976 0.03
vn -0.98484 -0.16507 -0.05327
vn 0.30386 -0.95259 -0.01532
vn -0.74592 -0.63167 -0.21118
vn -0.99679 0.07698 0.02176
vn -0.99252 0.06332 -0.10442
vn -0.04428 0.24117 0.96947
vn -0.76353 -0.0024 0.64576
vn 0.98594 -0.16288 -0.0373
vn 0.98685 -0.06506 0.14798
vn 0.99155 -0.11504 0.05997
vn 0.2034 -0.97883 0.02285
vn 0.51657 0.85493 0.04747
vn 0.58713 0.00352 -0.80948
vn 0.99247 0.07772 0.09467
vn -0.83214 -0.1138 -0.54277
vn -0.99087 -0.10289 0.08715
vn -0.24667 -0.96908 0.00657
vn -0.79675 -0.37503 -0.47386
vn -0.01903 -3E-05 0.99982
vn -0.01932 -1E-05 0.99981
vn 0.02009 -9E-05 0.9998
vn 0.0159 0.00023 0.99987
vn -0.99135 0.07735 0.10604
vn 0.84632 -0.53142 -0.0364
vn 0.83834 -0.11932 -0.53194
vn 0.71339 -0.68535 -0.14616
vn 0.75291 -0.05078 -0.65616
vn 0.96244 0.23445 0.13692
vn 0.98673 0.05405 0.15311
vn 0.98446 0.16224 0.06715
vn 0.96368 0.2582 0.06815
vn 0.98828 0.13579 0.0697
vn 0.9924 0.06329 -0.10552
vn 0.99713 0.07356 0.01781
vn 0.99712 0.07446 -0.01411
vn 0.52567 0.0308 -0.85013
vn 0.01124 0.14585 -0.98924
vn -0.01916 0.14599 -0.9891
vn 0.2958 0.09027 -0.95097
vn -0.75352 -0.0513 -0.65542
vn -0.55706 -0.525 -0.64347
vn -0.82652 -0.17574 -0.53477
vn -0.81526 -0.31557 -0.48556
vn -0.94751 -0.15607 -0.27904
vn -0.93384 -0.29264 0.20568
vn 0.16893 -0.86807 -0.46682
vn -0.71316 -0.69868 0.05695
vn -0.30451 -0.95237 -0.01629
vn 0.02194 0.62115 0.78339
vn -0.00551 0.61581 0.78788
vn 0.36612 0.00041 0.93057
vn 0.3362 1E-05 0.94179
vn -0.96975 -7E-05 0.24409
vn -0.96213 0.00071 0.2726
vn -0.98823 0.06142 0.14011
vn -0.36046 -0.5384 -0.7617
vn 0.82928 -0.17162 -0.53183
vn 0.67757 -0.00184 0.73545
vn 0.49635 0.86708 -0.04248
vn 0.07553 0.72259 0.68713
vn 0.90498 0.38397 0.18325
vn 0.01271 0.98066 -0.19529
vn 0.85181 0.07132 -0.51897
vn 0.0352 0.59165 -0.80542
vn -0.5389 0.64322 -0.54393
vn 0.07778 -0.00364 -0.99696
vn -0.19873 0.11334 -0.97348
vn -0.79312 -0.60599 -0.06113
vn 0.28357 -0.9589 -0.00946
vn -0.17848 -0.86569 -0.46769
vn -0.98787 0.15319 -0.02552
vn -0.20664 -0.00149 0.97841
vn -0.50113 0.00051 0.86537
vn 0.04677 -0.4451 0.89426
vn -0.01525 -0.99722 0.073
vn -0.01602 0.9807 -0.19485
vn -0.10472 0.77731 0.62034
vn -0.01625 0.99911 -0.03895
vn 0.81294 -0.46373 -0.35225
vn 0.73494 -0.64875 -0.19743
vn 0.35551 -0.88983 -0.28603
vn 0.77975 -0.49323 0.38564
vn 0.26434 -0.96205 0.06764
vn 0.54208 -0.66414 0.51485
vn 0.47049 -0.71183 0.52148
vn 0.58435 -0.80737 -0.08179
vn 0.82667 -0.54898 0.12346
vn 0.87331 -0.42799 0.2327
vn 0.0135 0.82138 0.57022
vn 0.48128 -0.004 -0.87656
vn 0.0263 0.97626 -0.21499
vn 0.03539 0.99152 -0.125
vn -0.02527 0.46843 -0.88314
vn 0.02953 0.79543 -0.60533
vn 0.00951 0.44746 -0.89425
vn 0.02939 0.32746 -0.94441
vn 0.0629 0.13557 -0.98877
vn -0.51238 0.03618 -0.858
vn -0.82575 0.07096 -0.55955
vn 0.67112 0.49039 -0.55598
vn -0.5831 0.00463 -0.81238
vn -0.0163 0.98064 -0.19515
vn -0.15704 0.79873 0.58083
vn 0.97371 -0.16665 -0.15529
vn 0.07579 -0.76565 0.63878
vn -0.02427 0.99967 0.00786
vn 0.02656 0.99909 0.03343
vn 0.76366 0.6338 -0.12298
vn 0.59401 0.79977 0.08672
vn 0.27753 0.74317 0.60883
vn 0.34464 0.75274 0.5609
vn 0.78474 0.46367 0.41133
vn -0.03587 0.68494 -0.72772
vn 0.9328 0.22032 -0.2852
vn 0.62423 0.72872 -0.2816
vn -0.01162 0.88802 -0.45965
vn 0.01189 0.88821 -0.45927
vn 0.12674 0.00071 -0.99194
vn -0.41261 -0.00847 -0.91087
vn -0.79863 -0.52031 -0.30245
vn -0.54151 -0.83432 0.10334
vn -0.31929 -0.94743 -0.02068
vn -0.72366 -0.67023 -0.16466
vn 0.02401 -0.60832 0.79333
vn -0.03156 -0.77603 0.6299
vn 0.02059 -0.9974 0.06902
vn -0.03113 -0.99705 0.0702
vn -0.98278 0.18464 -0.00784
vn 0.21612 -0.54032 -0.81323
vn 0.24608 -0.28439 -0.92659
vn 0.55631 -0.52843 -0.64131
vn 0.79254 -0.37877 -0.47793
vn 0.88037 -0.31213 0.3571
vn 0.32561 -0.45132 0.83084
vn 0.1011 -0.78604 0.60986
vn 0.53596 -0.15659 -0.82959
vn 0.58074 0.65068 0.48925
vn 0.49156 0.19888 0.84783
vn 0.82834 0.38074 0.41096
vn 0.03575 0.92635 -0.37496
vn 0.65678 0.74949 -0.08313
vn 0.72053 0.69291 -0.02676
vn 0.57281 0.24802 -0.78126
vn 0.99095 0.13222 -0.02307
vn 0.98577 0.16767 0.01187
vn -0.01536 0.73052 -0.68272
vn 0.01285 0.73005 -0.68327
vn -0.01854 0.44917 -0.89325
vn -0.61921 -0.77958 -0.094
vn -0.32043 -0.88655 -0.3337
vn -0.09894 -0.71555 0.69152
vn -0.08411 -0.71285 0.69625
vn -0.60803 -0.64489 0.46304
vn -0.42376 -0.3438 0.83799
vn -0.60521 0.78876 -0.10763
vn -0.01745 0.99666 -0.07983
vn -0.01936 0.99863 -0.04868
vn -0.63429 0.64092 -0.4323
vn 0.03795 -0.16339 -0.98583
vn 0.53878 0.50297 -0.67582
vn 0.81364 0.19122 -0.54902
vn 0.65248 0.65329 -0.38404
vn 0.71782 0.58535 -0.37697
vn -0.28609 -0.76353 0.57894
vn -0.03743 -0.61815 0.78517
vn -0.70908 -0.37258 0.59866
vn -0.87849 0.35122 0.32389
vn -0.89082 0.29997 0.34127
vn -0.86813 0.37252 0.32798
vn -0.60516 0.77239 -0.19285
vn -0.98455 0.1564 0.07868
vn -0.9823 0.17689 0.06166
vn -0.98159 0.18733 0.03715
vn -0.44589 0.83239 -0.32909
vn -0.36372 0.72988 0.57877
vn -0.57572 0.32229 0.75145
vn 0.44236 0.33316 -0.83266
vn -0.70625 0.35157 -0.6145
vn -0.65453 0.35693 -0.66648
vn -0.83884 0.2741 -0.47033
vn -0.3547 0.93334 0.0553
vn -0.56174 0.82056 -0.1055
vn -0.85174 0.52214 0.04366
vn -0.75962 0.64294 0.09801
vn -0.03603 0.91672 -0.39791
vn -0.56081 0.66826 0.4888
vn -0.41423 0.48084 0.77279
vn -0.39032 -0.16887 -0.90506
vn -0.75265 -0.50664 0.42051
vn -0.02974 0.99521 -0.09309
vn -0.3465 -0.19347 -0.91788
vn -0.60213 0.79694 -0.0482
f 1//1 2//1 3//1
f 4//2 5//2 6//2
f 7//3 6//3 8//3
f 9//4 10//4 11//4
f 10//5 3//5 11//5
f 12//6 1//6 3//6
f 13//7 6//7 14//7
f 8//8 6//8 5//8
f 4//9 6//9 13//9
f 15//10 16//10 17//10
f 18//11 19//11 13//11
f 20//12 7//12 8//12
f 21//13 6//13 7//13
f 22//14 23//14 24//14
f 25//15 26//15 27//15
f 28//16 10//16 9//16
f 2//17 29//17 3//17
f 29//18 11//18 3//18
f 30//19 16//19 15//19
f 31//20 32//20 33//20
f 34//21 35//21 36//21
f 37//22 3//22 38//22
f 6//23 39//23 40//23
f 25//24 8//24 5//24
f 41//25 42//25 16//25
f 18//26 14//26 43//26
f 22//27 24//27 44//27
f 44//28 45//28 22//28
f 46//29 22//29 45//29
f 45//30 47//30 46//30
f 20//31 8//31 48//31
f 9//32 11//32 15//32
f 36//33 10//33 49//33
f 50//34 28//34 9//34
f 10//35 36//35 35//35
f 12//36 37//36 32//36
f 37//37 12//37 3//37
f 37//38 38//38 51//38
f 37//39 52//39 32//39
f 52//40 37//40 51//40
f 10//41 35//41 53//41
f 10//42 53//42 38//42
f 10//43 38//43 3//43
f 54//44 35//44 34//44
f 55//45 56//45 57//45
f 56//46 55//46 58//46
f 57//47 54//47 34//47
f 39//48 6//48 21//48
f 59//49 18//49 43//49
f 40//50 39//50 43//50
f 14//51 40//51 43//51
f 14//52 6//52 40//52
f 60//53 25//53 5//53
f 59//54 61//54 17//54
f 42//55 60//55 5//55
f 16//56 42//56 17//56
f 62//57 22//57 46//57
f 22//58 62//58 23//58
f 1//59 46//59 63//59
f 47//60 63//60 46//60
f 25//61 64//61 8//61
f 64//62 25//62 27//62
f 64//63 48//63 8//63
f 65//64 59//64 43//64
f 66//65 36//65 49//65
f 63//66 2//66 1//66
f 33//67 32//67 67//67
f 68//68 62//68 46//68
f 32//69 69//69 12//69
f 70//70 71//70 67//70
f 53//71 35//71 54//71
f 72//72 73//72 74//72
f 75//73 76//73 77//73
f 78//74 55//74 34//74
f 55//75 79//75 58//75
f 4//76 42//76 5//76
f 50//77 15//77 17//77
f 59//78 17//78 18//78
f 7//79 20//79 77//79
f 24//80 26//80 44//80
f 27//81 26//81 24//81
f 45//82 80//82 47//82
f 41//83 16//83 81//83
f 82//84 71//84 70//84
f 62//85 83//85 23//85
f 33//86 84//86 83//86
f 49//87 28//87 61//87
f 61//88 28//88 50//88
f 61//89 50//89 17//89
f 63//90 85//90 29//90
f 85//91 30//91 15//91
f 80//92 85//92 63//92
f 85//93 80//93 30//93
f 9//94 15//94 50//94
f 85//95 15//95 11//95
f 11//96 29//96 85//96
f 83//97 62//97 68//97
f 34//98 36//98 78//98
f 70//99 67//99 86//99
f 71//100 33//100 67//100
f 58//101 76//101 72//101
f 73//102 87//102 88//102
f 72//103 74//103 56//103
f 56//104 74//104 57//104
f 34//105 55//105 57//105
f 21//106 79//106 55//106
f 21//107 7//107 79//107
f 89//108 73//108 90//108
f 39//109 21//109 55//109
f 91//110 82//110 70//110
f 84//111 23//111 83//111
f 28//112 49//112 10//112
f 92//113 80//113 93//113
f 31//114 33//114 68//114
f 68//115 33//115 83//115
f 51//116 86//116 52//116
f 69//117 32//117 31//117
f 46//118 94//118 68//118
f 94//119 31//119 68//119
f 94//120 12//120 69//120
f 76//121 75//121 72//121
f 90//122 53//122 89//122
f 86//123 51//123 88//123
f 75//124 70//124 87//124
f 87//125 70//125 88//125
f 95//126 55//126 78//126
f 39//127 55//127 95//127
f 14//128 18//128 13//128
f 42//129 41//129 60//129
f 19//130 17//130 42//130
f 19//131 4//131 13//131
f 45//132 93//132 80//132
f 92//133 93//133 81//133
f 16//134 30//134 92//134
f 92//135 81//135 16//135
f 96//136 77//136 20//136
f 66//137 59//137 65//137
f 65//138 78//138 66//138
f 59//139 66//139 61//139
f 49//140 61//140 66//140
f 2//141 63//141 29//141
f 80//142 63//142 47//142
f 80//143 92//143 30//143
f 78//144 36//144 66//144
f 94//145 69//145 31//145
f 94//146 46//146 1//146
f 12//147 94//147 1//147
f 70//148 86//148 88//148
f 67//149 52//149 86//149
f 52//150 67//150 32//150
f 57//151 89//151 54//151
f 53//152 90//152 38//152
f 90//153 51//153 38//153
f 75//154 87//154 72//154
f 72//155 87//155 73//155
f 56//156 58//156 72//156
f 42//157 4//157 19//157
f 19//158 18//158 17//158
f 97//159 81//159 44//159
f 81//160 93//160 44//160
f 41//161 97//161 60//161
f 26//162 97//162 44//162
f 98//163 99//163 91//163
f 100//164 33//164 71//164
f 84//165 33//165 100//165
f 96//166 75//166 77//166
f 95//167 78//167 65//167
f 73//168 89//168 74//168
f 53//169 54//169 89//169
f 73//170 88//170 51//170
f 90//171 73//171 51//171
f 41//172 81//172 97//172
f 44//173 93//173 45//173
f 25//174 97//174 26//174
f 101//175 48//175 64//175
f 64//176 27//176 101//176
f 102//177 48//177 101//177
f 96//178 98//178 91//178
f 48//179 99//179 20//179
f 99//180 98//180 20//180
f 98//181 96//181 20//181
f 96//182 91//182 75//182
f 84//183 101//183 23//183
f 27//184 24//184 101//184
f 89//185 57//185 74//185
f 77//186 76//186 79//186
f 79//187 76//187 58//187
f 79//188 7//188 77//188
f 102//189 84//189 100//189
f 91//190 99//190 82//190
f 48//191 100//191 99//191
f 100//192 48//192 102//192
f 75//193 91//193 70//193
f 84//194 102//194 101//194
f 24//195 23//195 101//195
f 43//196 95//196 65//196
f 25//197 60//197 97//197
f 82//198 100//198 71//198
f 43//199 39//199 95//199
f 100//200 82//200 99//200
# Vertices: 102, normals: 200, texture coordinates: 0, faces: 200

