# File generated by ImageToStl.com - Free Image and 3D model conversion tools

o obj1
v 0.05351522 -0.06224632 0.01266149
v 0.05137493 -0.06387304 0.01953165
v 0.04827825 -0.09039827 0.01388267
v -0.00573017 -0.0004888 0.05494275
v -0.00865872 -0.06425073 0.05443486
v -0.00106469 -0.06547131 0.05497309
v 0.05438241 0.00892473 -0.19199741
v 0.05173926 0.01926744 -0.11939907
v 0.05488298 -0.00057262 0.00594928
v 0.02317634 -0.05013978 -0.19200006
v 0.01785914 -0.12439653 -0.01661545
v 0.00773435 -0.05457269 -0.19199999
v 0.02403556 -0.06473367 0.04954588
v 0.0322287 -0.00046813 0.04507936
v 0.01212751 -0.00050359 0.05390342
v -0.02248246 -0.1233412 -0.01459831
v -0.02866809 -0.11966751 -0.01631558
v -0.02610779 -0.04868469 -0.19200005
v -0.04225171 -0.0004799 0.03559083
v -0.0503181 -0.00049732 0.02246607
v -0.04308185 -0.06385966 0.03450939
v 0.04263436 -0.10989311 -0.01244933
v 0.03472726 -0.11629414 -0.01464805
v 0.03711269 -0.04073063 -0.19200005
v 0.00019801 0.054921 -0.12517768
v 0.01759816 0.05218844 -0.12665521
v 0.00894457 0.05426161 -0.12622507
v -0.04489891 -0.10741147 0.01209922
v -0.04906644 -0.08831018 0.01265151
v -0.05190206 -0.08054304 0.00515394
v -0.04266555 -0.11128972 0.00613524
v -0.03284394 -0.11920276 0.00778572
v -0.03887026 -0.11292509 0.01446814
v 0.00770476 -0.12579538 -0.01947694
v 0.00992622 -0.06483681 0.05422972
v -0.02095491 -0.06462245 0.05093071
v -0.01425224 -0.08475539 0.04950689
v -0.02296033 -0.08502436 0.04610969
v -0.04931676 -0.06436009 0.02433205
v -0.04150706 -0.10702515 0.02137061
v -0.00848543 -0.12535711 -0.02050384
v -0.00799961 -0.05470039 -0.192
v -0.02573109 -0.00052143 0.04916156
v -0.03330988 0.04387387 -0.12612753
v -0.05476839 -0.00060219 0.00751677
v -0.05319768 -0.06203084 0.01428156
v -0.05340475 0.01362207 -0.11847576
v -0.05494202 0.00402568 -0.19200045
v -0.05498699 -0.06027575 0.00294462
v 0.04601553 -0.00051663 0.03042751
v 0.05187714 -0.00050206 0.01858224
v 0.02802542 0.04740721 -0.12645853
v 0.05516123 -0.00362816 -0.19200407
v 0.05495282 -0.06066821 0.00356367
v -0.00035502 0.05519225 -0.19199993
v 0.01220246 0.05370251 -0.19199994
v 0.0043116 -0.10744496 0.04623082
v -0.00586523 -0.09205546 0.04973691
v -0.00432267 -0.10741715 0.0461527
v -0.00826549 -0.1267326 0.01620139
v -0.00576861 -0.12874179 0.00785566
v 0.00420393 -0.12791806 0.01365977
v 0.00392783 -0.12509137 0.02259392
v -0.01121154 -0.12247773 0.02615083
v -0.03182888 -0.06406831 0.04503321
v -0.02827987 -0.12077321 0.01322743
v -0.01927347 -0.12582107 0.0080081
v -0.04076765 -0.11356543 -0.00356635
v -0.04654616 -0.10721863 -0.00031815
v -0.05366753 -0.01320664 -0.19200347
v 0.04962209 -0.02477742 -0.19199902
v -0.03403653 -0.08371419 0.03894062
v -0.03092265 -0.12093101 -0.0022429
v -0.02289224 -0.12500571 -0.00073528
v -0.0338934 -0.11756355 -0.01255803
v -0.01554934 -0.12656902 -0.01042417
v -0.0523345 0.01752311 -0.19200012
v -0.02542412 0.04883168 -0.12665835
v 0.05064936 -0.0876873 0.00365876
v 0.04478906 0.0323451 -0.192
v 0.03429171 0.04316972 -0.19199964
v 0.03747777 0.04046652 -0.1257019
v 0.04644427 -0.10738757 0.00010382
v 0.04051394 -0.11303682 0.00892103
v 0.03748389 -0.1162717 -0.00361497
v 0.04545925 -0.10845804 -0.00570302
v 0.0518228 0.01880044 -0.19199999
v 0.04556035 0.03094476 -0.12359652
v 0.0178707 -0.12668169 -0.00476864
v 0.03050761 -0.12121992 0.00339203
v 0.02067732 -0.12523048 0.0083392
v 0.0048776 -0.12937313 0.00094688
v 0.00894355 -0.12816361 -0.00918091
v 0.01346583 -0.12778318 0.00526862
v -0.01127209 -0.1285128 0.00025003
v 0.01738458 -0.12441099 0.01731236
v -0.00274381 -0.12057712 0.03146135
v 0.00326605 -0.11095411 0.04345461
v 0.00391118 -0.11821716 0.03498186
v 0.01167945 -0.11317304 0.03954873
v -0.00890025 -0.11383843 0.03961052
v -0.01455147 -0.10737892 0.04419148
v -0.01816675 -0.11193181 0.03836982
v -0.01803861 -0.11866461 0.02956558
v -0.02826573 -0.11830741 0.02067579
v -0.01923418 -0.12363321 0.01751966
v -0.02550161 -0.11440779 0.03082911
v -0.03521479 -0.11162344 0.02439068
v -0.04237934 -0.1096732 -0.01396548
v -0.04294182 -0.03502011 -0.19199897
v 0.02541199 -0.12094475 -0.01763186
v 0.02666333 -0.12285441 -0.0077201
v -0.0248766 -0.10748386 0.03913093
v 0.00379406 -0.08903137 0.05052444
v -0.04558662 -0.10775764 -0.00725363
v -0.01207866 0.05372301 -0.19200003
v -0.00885716 0.05424548 -0.12601554
v -0.01556026 0.05279855 -0.12659608
v -0.02154863 0.05074402 -0.19199972
v 0.04652757 -0.06468046 0.02929465
v 0.0447276 -0.09114541 0.02252766
v 0.02291314 0.05015087 -0.19199979
v 0.02132362 -0.12040489 0.02369886
v 0.02930685 -0.12024177 0.01310491
v 0.03447194 -0.11438915 0.02029616
v -0.03399466 -0.10752283 0.03167676
v 0.04059381 -0.06440568 0.03712695
v 0.04006225 -0.09008434 0.0304051
v 0.03931864 -0.10737132 0.02466287
v 0.03285791 -0.06432679 0.04415122
v 0.03231566 -0.08544853 0.03994131
v 0.02135125 -0.08432438 0.04701795
v 0.02266187 -0.10751047 0.04051193
v 0.02175422 -0.11127211 0.03726738
v 0.03328364 -0.1072906 0.03254599
v 5.198E-05 -0.12783514 -0.01433453
v -0.04133449 -0.08453839 0.03063145
v -0.03077339 0.04563587 -0.19199961
v 0.04293196 -0.10741803 0.0176654
v 0.04544262 -0.10733813 0.00965919
v -0.00025176 -0.12937106 -0.0041505
v 0.01381964 -0.11936767 0.03052386
v 0.02161955 -0.11637793 0.03063349
v 0.01130416 -0.09107229 0.04895361
v 0.03056916 -0.11289524 0.028145
v -0.0378746 0.04003107 -0.19199997
v -0.0501335 0.02274372 -0.12207379
v 0.01369199 -0.10719889 0.04443472
v -0.00824254 -0.12833458 -0.00860316
v -0.03969505 0.03813633 -0.12517811
v -0.0458852 0.03055092 -0.19200005
v -0.04579791 0.03058434 -0.12347961
vn 0.95198 -0.16593 0.25729
vn -0.07144 -0.00466 0.99743
vn 0.97971 0.2003 0.00713
vn 0.25631 -0.89287 -0.37026
vn 0.40191 0.0124 0.9156
vn -0.40563 -0.84541 -0.34749
vn -0.85196 0.00222 0.5236
vn 0.64956 -0.70258 -0.29061
vn 0.12381 0.95024 0.28585
vn 0.23707 0.93429 0.26627
vn -0.96614 -0.21492 0.14275
vn -0.63537 -0.75934 0.14036
vn 0.22864 -0.89986 -0.37145
vn 0.31509 -0.00597 0.94904
vn -0.26635 -0.15594 0.95118
vn -0.35246 -0.18226 0.91791
vn -0.85275 0.00189 0.52232
vn -0.9154 -0.20966 0.34363
vn -0.00087 -0.9246 -0.38094
vn 0.0075 -0.92431 -0.38158
vn -0.29343 -0.88326 -0.36571
vn -0.28219 -0.88674 -0.36614
vn -0.27768 0.0051 0.96066
vn -0.27423 0.00611 0.96164
vn 0.01793 0.95548 0.29452
vn -0.58705 0.79167 0.16921
vn -0.95842 0.00691 0.28527
vn -0.9916 0.12926 0.00386
vn -0.99999 0.00359 0.00095
vn 0.43598 0.87345 0.21682
vn 1 0.00111 0.00139
vn 0.10638 0.95126 0.28946
vn 0.99808 0.06192 0.00045
vn 0.07558 0.99713 0.00342
vn 0.23313 0.97244 0.00328
vn -0.00954 -0.22812 0.97359
vn -0.04773 -0.97427 0.22028
vn -0.07171 -0.92459 0.37416
vn -0.63469 0.01071 0.77269
vn -0.68308 -0.00351 0.73034
vn -0.55959 -0.79313 0.24044
vn -0.43718 -0.89274 0.10903
vn -0.73552 -0.67734 0.01499
vn -0.98107 -0.18577 -0.05466
vn 0.52887 -0.78333 -0.32664
vn 0.76126 -0.59691 -0.25334
vn -0.09761 -0.17533 0.97966
vn -0.18468 -0.18175 0.96585
vn -0.99698 -0.07373 -0.02455
vn -0.67703 -0.14752 0.72102
vn -0.43119 -0.89423 -0.12011
vn -0.46111 -0.88502 0.06418
vn -0.46895 -0.8674 -0.16644
vn -0.25508 -0.92251 -0.28968
vn -0.98184 0.18968 -0.00423
vn -0.51319 0.83673 0.19111
vn 0.98654 -0.15729 -0.04482
vn 0.71786 0.69616 -0.00611
vn 0.96321 -0.25229 -0.09256
vn 0.70166 -0.71237 0.01423
vn 0.96864 -0.17243 0.17892
vn 0.96802 0.25089 -0.0005
vn 0.74636 0.65702 0.10614
vn 0.59162 0.8062 0.00444
vn 0.38605 -0.92227 0.01945
vn 0.18437 -0.9819 -0.04325
vn 0.19312 -0.98091 -0.02289
vn -0.05357 -0.99853 0.0087
vn 0.0154 -0.9933 0.1145
vn 0.1986 -0.95866 0.2038
vn 0.16604 -0.9387 0.30213
vn -0.05841 -0.90673 0.41765
vn 0.10451 -0.75112 0.65184
vn -0.2337 -0.69016 0.68488
vn 0.05328 -0.87312 0.48458
vn -0.17801 -0.81394 0.55301
vn -0.16312 -0.81732 0.55262
vn -0.36489 -0.84738 0.38574
vn -0.39455 -0.81671 0.42109
vn -0.56813 -0.76259 0.30934
vn -0.55448 -0.78972 0.26249
vn -0.29303 -0.87327 0.38928
vn -0.41003 -0.86562 0.28734
vn -0.38342 -0.89972 0.20854
vn -0.96749 -0.21988 0.12493
vn -0.62208 -0.72274 -0.3011
vn 0.34824 -0.86697 -0.35651
vn 0.8109 -0.54037 -0.2246
vn 0.34178 -0.92271 -0.17832
vn -0.42583 -0.23515 0.87371
vn -0.34971 -0.20989 0.91304
vn -0.47699 -0.15744 0.86469
vn -0.47716 -0.0113 0.87874
vn -0.02067 -0.18962 0.98164
vn -0.98793 -0.00823 0.15465
vn -0.93318 -0.00413 0.35938
vn -0.20646 -0.96354 0.1702
vn -0.2085 -0.97043 0.12165
vn -0.29123 -0.95614 0.03138
vn -0.88215 -0.43379 -0.18342
vn -0.12435 0.99224 -0.00179
vn -0.08549 0.95308 0.29038
vn -0.09774 0.95252 0.28838
vn -0.22075 0.93675 0.2716
vn -0.37314 0.92776 0.00502
vn 0.88747 0.46086 -0.00194
vn 0.87436 0.48221 0.0544
vn 0.89627 -0.00046 0.44352
vn 0.88822 -0.16959 0.42698
vn 0.9783 -0.19758 -0.06232
vn 0.69973 -0.71429 0.01298
vn 0.67653 -0.72502 -0.12906
vn 0.64761 -0.74492 -0.16029
vn 0.61376 -0.78759 0.05488
vn 0.76185 0.64773 0.00467
vn 0.41671 0.90902 0.00555
vn 0.40262 0.88731 0.22488
vn 0.31474 0.94917 -0.004
vn 0.11781 0.99303 -0.00261
vn 0.31967 -0.94683 0.03638
vn 0.25856 -0.94879 0.18153
vn 0.46237 -0.82065 0.33579
vn -0.2378 -0.77323 0.58785
vn -0.39017 -0.69243 0.60688
vn -0.47498 -0.65788 0.58445
vn -0.18363 -0.24081 0.95304
vn -0.0091 -0.61875 0.78553
vn -0.00823 -0.2273 0.97379
vn -0.02506 -0.75993 0.64952
vn -0.3322 -0.75157 0.56991
vn -0.02934 -0.95327 0.3007
vn -0.7018 -0.68804 0.18461
vn -0.54334 -0.7756 -0.32129
vn -0.59932 -0.7383 -0.3094
vn -0.63219 -0.77267 0.05757
vn 0.50418 -0.79787 -0.33045
vn 0.797 -0.0043 0.60396
vn 0.72826 0.01005 0.68523
vn 0.82905 -0.20807 0.51902
vn 0.05811 0.00464 0.9983
vn 0.06732 0.00276 0.99773
vn 0.07626 -0.1698 0.98252
vn 0.52191 -0.00725 0.85297
vn 0.51598 -0.20426 0.83189
vn 0.47003 -0.63879 0.60911
vn -0.98176 -0.13482 0.13408
vn -0.98692 -0.15503 -0.04411
vn -0.52177 -0.70312 0.48309
vn -0.00162 -0.92871 -0.3708
vn -0.43754 -0.89387 0.09774
vn -0.22023 -0.91876 0.3277
vn -0.4678 -0.87107 -0.14964
vn -0.80426 -0.54895 -0.22765
vn -0.9498 -0.29339 -0.10861
vn -0.71394 -0.68488 -0.14569
vn -0.72917 -0.18516 0.6588
vn -0.07482 0.99719 0.00467
vn -0.21121 0.97744 0.00257
vn -0.22546 0.93599 0.27037
vn -0.53215 0.84665 0.00216
vn -0.36385 0.90103 0.23611
vn -0.38038 0.8951 0.23259
vn 0.8957 -0.0007 0.44466
vn 0.91114 -0.20701 0.35633
vn 0.91479 -0.18344 0.35987
vn 0.96423 -0.20369 0.16961
vn 0.64359 0.75074 0.14894
vn 0.9514 -0.2883 -0.10824
vn 0.97952 -0.15556 0.1278
vn 0.96885 -0.22534 0.10273
vn 0.74855 -0.65801 0.08187
vn 0.52295 0.85235 -0.00511
vn 0.57436 0.80075 0.17005
vn 0.1224 -0.98529 0.11926
vn 0.08394 -0.99285 -0.08487
vn 0.40602 -0.86574 0.29263
vn 0.11605 -0.86842 0.48205
vn -0.33715 -0.62853 0.70092
vn 0.28413 -0.76258 0.58116
vn 0.27653 -0.76046 0.58756
vn 0.14176 -0.22101 0.96491
vn -0.14488 -0.65358 0.74287
vn -0.04656 -0.7868 0.61545
vn -0.61521 -0.23104 0.75375
vn -0.49864 -0.75505 0.42574
vn -0.65512 -0.67941 0.33047
vn -0.70547 -0.64886 0.28512
vn -0.79187 -0.60315 0.09568
vn -0.75173 -0.65734 -0.05292
vn -0.65497 -0.73541 -0.17374
vn 0.43482 -0.88904 0.14329
vn 0.71439 -0.191 0.67318
vn 0.71205 -0.19666 0.67402
vn 0.28207 -0.66474 0.69177
vn 0.51919 -0.17986 0.83552
vn 0.67221 -0.00414 0.74035
vn 0.46445 -0.79853 0.38293
vn 0.42927 -0.78887 0.43978
vn 0.46703 -0.67485 0.57136
vn -0.21799 -0.22049 0.95072
vn -0.54919 -0.19062 0.81367
vn -0.90719 -0.19204 0.37432
vn -0.9322 -0.16648 0.32138
vn -0.85769 -0.19016 0.47771
vn -0.72586 -0.20189 0.65755
vn -0.96684 -0.16413 0.19564
vn 0.10018 -0.96695 -0.23446
vn -0.2837 -0.957 -0.06059
vn -0.24094 -0.94562 0.21851
vn -0.61955 0.78496 -0.00286
vn -0.9372 0.34758 0.0291
vn -0.30007 0.95391 -0.00249
vn 0.88395 0.46759 -0.00039
vn 0.92975 -0.22776 0.28929
vn 0.66093 -0.70107 0.26771
vn 0.65849 -0.66912 0.34449
vn 0.27921 0.92445 0.25967
vn 0.39146 -0.89223 0.22513
vn 0.2443 -0.88214 0.40267
vn 0.17105 -0.79292 0.58482
vn -0.5488 -0.205 0.81043
vn 0.43133 -0.71916 0.54475
vn 0.31068 -0.82767 0.46737
vn 0.18865 -0.23898 0.95252
vn -0.06463 -0.6892 0.72169
vn -0.65755 -0.60415 0.45013
vn -0.58845 -0.8032 -0.09274
vn -0.60085 -0.79905 0.02259
vn 0.38062 -0.89792 -0.22105
vn 0.53566 -0.8422 -0.06143
vn 0.3983 -0.91725 -0.00287
vn 0.49184 -0.84133 -0.22419
vn 0.58395 -0.7822 0.21718
vn 0.78215 -0.17289 0.59862
vn 0.77157 -0.23018 0.59304
vn 0.52049 -0.17905 0.83488
vn 0.66236 -0.16276 0.73129
vn 0.5861 -0.23642 0.77498
vn -0.83682 -0.1684 0.52094
vn -0.17234 -0.95641 -0.23577
vn -0.35775 -0.92585 -0.12174
vn -0.48443 0.87483 -0.00313
vn -0.77771 0.62863 0.00068
vn -0.86929 0.49097 0.05736
vn 0.72347 -0.65425 0.22034
vn 0.98787 -0.00501 0.15523
vn -0.0555 -0.99692 0.05544
vn -0.21211 -0.97289 -0.09217
vn 0.04901 -0.98784 -0.14752
vn 0.3119 -0.16351 0.93594
vn 0.1677 -0.65736 0.73468
vn 0.16048 -0.64137 0.75026
vn -0.79216 -0.22721 0.56645
vn 0.55211 -0.82256 -0.13627
vn 0.57402 -0.80461 0.15199
vn 0.3833 -0.22938 0.89469
vn 0.31993 -0.21142 0.92355
vn -0.10721 -0.96502 -0.23925
vn 0.24866 -0.95101 -0.18369
vn 0.1991 -0.94954 -0.24236
vn -0.66814 0.74403 0.00289
vn -0.64945 0.74661 0.14419
vn -0.76382 0.64542 -0.00251
vn -0.76279 0.63888 0.09986
vn -0.89619 0.44365 -0.00491
vn 0.86426 -0.22918 0.44781
vn 0.83345 -0.18942 0.51912
vn 0.59811 -0.67848 0.42654
vn 0.59753 -0.65386 0.46414
vn 0.97284 0.00362 0.23145
vn 0.95495 -0.00312 0.29676
vn -0.09888 -0.99364 -0.05384
vn 0.2008 -0.89594 0.3962
vn 0.28069 -0.66252 0.69446
vn 0.29724 -0.17322 0.93896
vn -0.94075 0.33907 0.0043
vn -0.04437 -0.98765 -0.15027
vn 0.15212 -0.18718 0.97048
vn -0.87505 0.48403 0.00088
vn 3E-05 4E-05 -1
vn 1E-05 -2E-05 -1
vn 0 -0 -1
vn 0.00014 0.00054 -1
vn -8E-05 -2E-05 -1
vn -5E-05 4E-05 -1
vn 0 0 -1
vn 0 0 -1
vn 0.00015 -0.0001 -1
vn 0 -0 -1
vn -0 3E-05 -1
vn -0.00011 -0.00021 -1
vn -0 -0 -1
vn 0.00043 0 -1
vn -0 1E-05 -1
vn -5E-05 9E-05 -1
vn -3E-05 -0.00027 -1
vn 1E-05 -2E-05 -1
vn 1E-05 -1E-05 -1
vn -0.00038 0.00015 -1
vn -6E-05 9E-05 -1
f 1//1 2//1 3//1
f 4//2 5//2 6//2
f 7//3 8//3 9//3
f 10//4 11//4 12//4
f 13//5 14//5 15//5
f 16//6 17//6 18//6
f 19//7 20//7 21//7
f 22//8 23//8 24//8
f 25//9 15//9 14//9
f 26//10 27//10 14//10
f 28//11 29//11 30//11
f 31//12 32//12 33//12
f 11//13 34//13 12//13
f 35//14 13//14 15//14
f 36//15 37//15 5//15
f 38//16 37//16 36//16
f 20//17 39//17 21//17
f 40//18 29//18 28//18
f 34//19 41//19 42//19
f 34//20 42//20 12//20
f 16//21 18//21 42//21
f 41//22 16//22 42//22
f 43//23 5//23 4//23
f 43//24 36//24 5//24
f 4//25 15//25 25//25
f 20//26 44//26 45//26
f 45//27 46//27 20//27
f 47//28 48//28 45//28
f 49//29 45//29 48//29
f 50//30 51//30 52//30
f 53//31 9//31 54//31
f 27//32 25//32 14//32
f 53//33 7//33 9//33
f 27//34 55//34 25//34
f 27//35 26//35 56//35
f 57//36 58//36 59//36
f 60//37 61//37 62//37
f 63//38 64//38 60//38
f 19//39 65//39 43//39
f 65//40 19//40 21//40
f 32//41 66//41 33//41
f 67//42 66//42 32//42
f 68//43 31//43 69//43
f 30//44 70//44 69//44
f 23//45 10//45 24//45
f 22//46 24//46 71//46
f 6//47 5//47 58//47
f 58//48 5//48 37//48
f 70//49 49//49 48//49
f 72//50 65//50 21//50
f 73//51 16//51 74//51
f 73//52 74//52 32//52
f 16//53 75//53 17//53
f 16//54 41//54 76//54
f 77//55 48//55 47//55
f 44//56 20//56 78//56
f 53//57 54//57 79//57
f 80//58 81//58 82//58
f 83//59 71//59 53//59
f 84//60 85//60 86//60
f 1//61 3//61 79//61
f 87//62 8//62 7//62
f 82//63 9//63 88//63
f 82//64 81//64 52//64
f 89//65 90//65 91//65
f 92//66 93//66 89//66
f 92//67 89//67 94//67
f 95//68 92//68 61//68
f 61//69 92//69 62//69
f 94//70 96//70 62//70
f 63//71 62//71 96//71
f 97//72 64//72 63//72
f 98//73 99//73 100//73
f 101//74 102//74 103//74
f 97//75 63//75 99//75
f 64//76 101//76 104//76
f 97//77 101//77 64//77
f 104//78 105//78 106//78
f 104//79 107//79 105//79
f 105//80 108//80 33//80
f 105//81 33//81 66//81
f 106//82 64//82 104//82
f 105//83 66//83 106//83
f 106//84 66//84 67//84
f 69//85 28//85 30//85
f 109//86 110//86 75//86
f 11//87 10//87 111//87
f 86//88 22//88 71//88
f 11//89 112//89 89//89
f 113//90 102//90 38//90
f 37//91 38//91 102//91
f 65//92 38//92 36//92
f 65//93 36//93 43//93
f 114//94 6//94 58//94
f 45//95 49//95 46//95
f 39//96 20//96 46//96
f 61//97 60//97 67//97
f 95//98 61//98 67//98
f 95//99 67//99 74//99
f 115//100 70//100 110//100
f 55//101 116//101 117//101
f 25//102 43//102 4//102
f 117//103 43//103 25//103
f 117//104 19//104 43//104
f 78//105 118//105 119//105
f 80//106 8//106 87//106
f 8//107 88//107 9//107
f 2//108 51//108 50//108
f 120//109 121//109 2//109
f 83//110 53//110 79//110
f 84//111 86//111 83//111
f 22//112 86//112 85//112
f 22//113 85//113 23//113
f 90//114 85//114 84//114
f 88//115 80//115 82//115
f 122//116 26//116 52//116
f 26//117 50//117 52//117
f 122//118 56//118 26//118
f 55//119 27//119 56//119
f 94//120 89//120 91//120
f 96//121 94//121 91//121
f 123//122 124//122 125//122
f 103//123 104//123 101//123
f 103//124 113//124 107//124
f 113//125 126//125 107//125
f 58//126 102//126 59//126
f 57//127 59//127 98//127
f 58//128 57//128 114//128
f 101//129 99//129 98//129
f 107//130 104//130 103//130
f 60//131 62//131 63//131
f 33//132 28//132 31//132
f 75//133 18//133 17//133
f 75//134 110//134 18//134
f 68//135 32//135 31//135
f 111//136 10//136 23//136
f 127//137 120//137 50//137
f 127//138 50//138 14//138
f 128//139 129//139 121//139
f 6//140 15//140 4//140
f 6//141 35//141 15//141
f 35//142 6//142 114//142
f 13//143 130//143 14//143
f 131//144 132//144 133//144
f 134//145 135//145 133//145
f 46//146 49//146 30//146
f 30//147 49//147 70//147
f 126//148 108//148 107//148
f 136//149 41//149 34//149
f 74//150 67//150 32//150
f 106//151 60//151 64//151
f 75//152 16//152 73//152
f 109//153 115//153 110//153
f 115//154 69//154 70//154
f 115//155 109//155 68//155
f 137//156 72//156 21//156
f 25//157 55//157 117//157
f 118//158 117//158 116//158
f 19//159 117//159 118//159
f 78//160 138//160 44//160
f 78//161 19//161 118//161
f 20//162 19//162 78//162
f 120//163 2//163 50//163
f 3//164 121//164 139//164
f 2//165 121//165 3//165
f 140//166 79//166 3//166
f 82//167 51//167 9//167
f 83//168 86//168 71//168
f 1//169 79//169 54//169
f 140//170 83//170 79//170
f 83//171 140//171 84//171
f 81//172 122//172 52//172
f 51//173 82//173 52//173
f 62//174 92//174 94//174
f 92//175 141//175 93//175
f 96//176 124//176 123//176
f 99//177 63//177 142//177
f 113//178 103//178 102//178
f 142//179 143//179 134//179
f 134//180 100//180 142//180
f 114//181 57//181 144//181
f 101//182 59//182 102//182
f 97//183 99//183 101//183
f 126//184 113//184 72//184
f 108//185 105//185 107//185
f 40//186 33//186 108//186
f 33//187 40//187 28//187
f 31//188 28//188 69//188
f 69//189 115//189 68//189
f 75//190 68//190 109//190
f 90//191 124//191 91//191
f 127//192 131//192 128//192
f 131//193 135//193 128//193
f 100//194 134//194 133//194
f 131//195 130//195 13//195
f 130//196 127//196 14//196
f 123//197 125//197 145//197
f 123//198 145//198 143//198
f 134//199 145//199 135//199
f 58//200 37//200 102//200
f 72//201 38//201 65//201
f 29//202 40//202 39//202
f 39//203 46//203 29//203
f 137//204 39//204 40//204
f 137//205 126//205 72//205
f 46//206 30//206 29//206
f 136//207 34//207 93//207
f 76//208 95//208 74//208
f 106//209 67//209 60//209
f 138//210 146//210 44//210
f 147//211 47//211 45//211
f 118//212 116//212 119//212
f 80//213 88//213 8//213
f 3//214 139//214 140//214
f 125//215 84//215 139//215
f 129//216 125//216 139//216
f 26//217 14//217 50//217
f 96//218 91//218 124//218
f 142//219 96//219 123//219
f 100//220 99//220 142//220
f 72//221 113//221 38//221
f 143//222 145//222 134//222
f 142//223 123//223 143//223
f 144//224 57//224 148//224
f 101//225 98//225 59//225
f 126//226 40//226 108//226
f 73//227 68//227 75//227
f 73//228 32//228 68//228
f 11//229 111//229 112//229
f 90//230 112//230 85//230
f 112//231 90//231 89//231
f 112//232 111//232 23//232
f 124//233 84//233 125//233
f 127//234 128//234 120//234
f 129//235 128//235 135//235
f 13//236 132//236 131//236
f 130//237 131//237 127//237
f 131//238 133//238 135//238
f 137//239 21//239 39//239
f 41//240 149//240 76//240
f 74//241 16//241 76//241
f 119//242 138//242 78//242
f 150//243 151//243 152//243
f 152//244 147//244 45//244
f 140//245 139//245 84//245
f 1//246 54//246 9//246
f 141//247 92//247 95//247
f 76//248 149//248 95//248
f 136//249 93//249 141//249
f 132//250 13//250 35//250
f 148//251 98//251 100//251
f 148//252 57//252 98//252
f 40//253 126//253 137//253
f 112//254 23//254 85//254
f 90//255 84//255 124//255
f 148//256 133//256 132//256
f 144//257 148//257 132//257
f 136//258 149//258 41//258
f 93//259 11//259 89//259
f 11//260 93//260 34//260
f 44//261 146//261 150//261
f 44//262 150//262 45//262
f 146//263 151//263 150//263
f 45//264 150//264 152//264
f 147//265 151//265 77//265
f 129//266 139//266 121//266
f 128//267 121//267 120//267
f 145//268 125//268 129//268
f 129//269 135//269 145//269
f 1//270 9//270 51//270
f 51//271 2//271 1//271
f 95//272 149//272 141//272
f 142//273 63//273 96//273
f 100//274 133//274 148//274
f 132//275 35//275 144//275
f 77//276 47//276 147//276
f 136//277 141//277 149//277
f 144//278 35//278 114//278
f 147//279 152//279 151//279
f 71//280 24//280 151//280
f 151//281 56//281 122//281
f 12//282 42//282 151//282
f 7//283 53//283 151//283
f 18//284 110//284 151//284
f 48//285 77//285 151//285
f 151//286 24//286 10//286
f 42//287 18//287 151//287
f 146//288 138//288 151//288
f 151//289 80//289 87//289
f 81//290 80//290 151//290
f 53//291 71//291 151//291
f 151//292 10//292 12//292
f 151//293 110//293 70//293
f 151//294 55//294 56//294
f 119//295 116//295 151//295
f 151//296 87//296 7//296
f 116//297 55//297 151//297
f 122//298 81//298 151//298
f 70//299 48//299 151//299
f 151//300 138//300 119//300
# Vertices: 152, normals: 300, texture coordinates: 0, faces: 300

