# File generated by ImageToStl.com - Free Image and 3D model conversion tools

o obj1
v 0.05477992 0.00875545 0.00069504
v 0.05498493 0.00179704 0.06007712
v 0.05493584 -0.19400285 -0.0050002
v 0.05413515 0.00944441 0.06282154
v 0.03105104 -0.12608166 -0.04550131
v 0.04760105 0.02803329 0.00048974
v 0.05024365 0.02267411 0.06323836
v 0.02120529 -0.12658803 -0.05080969
v 0.03994606 -0.12449421 -0.03792628
v 0.04841339 -0.12326125 -0.02653201
v -0.05188319 -0.19399977 -0.01839457
v -0.05001414 -0.12169694 -0.02326114
v -0.0466703 -0.19399978 -0.02942549
v -0.04396287 0.03329544 0.0004897
v -0.03615099 0.04164762 0.06448054
v -0.03209942 0.04499995 0.00050825
v -0.01523715 -0.01719262 0.12508389
v -0.02376017 -0.19400001 0.04971216
v -0.01057805 -0.19400001 0.05414896
v -0.02546638 -0.01619754 0.12143876
v 0.03070188 -0.01609079 0.11849506
v 0.02183674 -0.19400004 0.05068676
v 0.03695343 -0.19400002 0.04108699
v 0.01609403 0.05276313 0.06414381
v 0.02859921 0.04727403 0.00049965
v 0.01356398 0.05344398 0.00049728
v 0.02872013 0.04702267 0.0647734
v 0.00351193 -0.12558001 -0.05488198
v 0.01145222 -0.12612861 -0.05378654
v -0.01387108 -0.12641338 -0.05333982
v 0.03907621 0.0387882 0.00049735
v -0.04393606 -0.01179666 0.10863183
v -0.04622778 -0.00365254 0.10762732
v -0.04874212 -0.19399935 0.02596549
v -0.05482887 0.00642324 0.00059196
v -0.05344662 -0.11811177 -0.0131661
v -0.05515344 -0.19400957 0.00510135
v -0.05452041 -0.1939999 -0.00818656
v -0.03582918 -0.12577716 -0.04182741
v -0.05117981 0.02055738 0.0004988
v -0.00343009 -0.12575863 -0.05487609
v -0.01791183 0.0521237 0.00050414
v -0.02141714 0.05090564 0.06456417
v -0.00776943 0.0545048 0.06450316
v -0.00246019 0.05522004 0.00049276
v -0.05122725 0.02037149 0.06275041
v 0.05340404 -0.11871272 -0.01352254
v 0.00075158 -0.00741707 0.12907469
v -0.00348431 -0.01673119 0.12709886
v 0.00626452 -0.01824066 0.12638284
v 0.00559829 -0.19400002 0.05490289
v 0.0379164 -0.01473556 0.1136169
v 0.04628194 -0.00300058 0.10748269
v 0.04778049 -0.19399984 0.02747549
v 0.05343135 -0.19400038 0.01361399
v 0.04460728 -0.01173345 0.10785935
v -0.01004515 -0.00110755 0.12871872
v -0.00688605 0.00774291 0.12860332
v -0.01503853 0.01139948 0.12657696
v -0.03665724 -0.01520997 0.11462126
v 0.04459744 0.03224637 0.06398973
v 0.05178569 0.00163012 0.08157236
v 0.04944811 0.01736598 0.07901754
v 0.02829356 -0.19399975 -0.04724994
v 0.04581776 -0.19400007 -0.03058761
v 0.03732472 -0.1940001 -0.04057463
v -0.05178117 0.00221134 0.08170677
v -0.05491599 0.00463229 0.06105931
v -0.0374301 -0.19400002 0.04066589
v -0.02767953 -0.12621239 -0.04766751
v -0.04521281 0.03144921 0.06345677
v -0.03959449 0.0333466 0.08314247
v -0.00855073 0.05090258 0.08459595
v -0.0197877 0.04746773 0.08511071
v -0.01302295 0.04480558 0.10706329
v -0.02521798 0.04486553 0.08474466
v -0.03131867 0.04095262 0.08398248
v 0.00337921 0.05500793 0.06443983
v 0.05175941 -0.19400017 -0.01909187
v 0.01905053 -0.01722878 0.12385574
v -0.01412502 -0.0095805 0.12716752
v 0.02982176 -0.00866372 0.12092882
v 0.0240752 -0.00408641 0.12449984
v 0.00397345 0.00051846 0.12948938
v -0.02088552 -0.00046233 0.12581955
v -0.01297573 -0.19399972 -0.05358854
v -4.274E-05 -0.19400002 -0.05509664
v 0.03648757 0.04113476 0.06551983
v -0.04306026 -0.12382582 -0.03432288
v 0.00901678 0.0126839 0.12756069
v 0.00261172 0.00856949 0.12887682
v 0.01185911 -0.00831063 0.12779208
v 0.01376655 0.02045274 0.12437765
v 0.01761708 0.00425055 0.12680708
v 0.0260309 0.00970153 0.12273915
v 0.04593544 0.00673847 0.1076781
v 0.03929816 -0.00592915 0.11460491
v 0.03638383 0.0032781 0.11726765
v -0.02555665 0.00795001 0.12326448
v -0.0236907 0.02152577 0.12040508
v -0.03230337 0.01580897 0.11760043
v -0.00434828 0.01710629 0.12688309
v -0.01442209 0.01993056 0.12430166
v 0.04860985 0.01015187 0.09332128
v -0.04625205 0.00699219 0.10675232
v -0.04276383 0.00539408 0.11133099
v -0.02674857 -0.19400035 -0.04829022
v 0.01601896 -0.19399998 -0.05288076
v -0.05142508 0.01327307 0.07475683
v -0.04653124 0.02304803 0.08220494
v -0.03747575 0.02754521 0.1073312
v -0.04253224 0.01827403 0.10767305
v -0.02667344 0.03248412 0.11235204
v -0.0311617 0.0343971 0.10735168
v 0.00196963 0.05120167 0.08669113
v -0.04406478 0.01544295 0.10712961
v 0.00030992 0.0235193 0.12482065
v 0.03310912 0.01372071 0.11769088
v -0.03027987 0.00225558 0.12128396
v -0.03620392 0.00731356 0.11678474
v -0.03135281 -0.00896166 0.11999896
v -0.03812049 -0.19400017 -0.03978385
v 0.04385069 0.02395953 0.09184842
v 0.03995641 0.03257022 0.08403901
v -0.01787697 0.04260781 0.10797487
v -0.00582199 0.04305869 0.11097798
v -0.00952703 0.03762323 0.1153194
v -0.01715606 0.03236088 0.11711121
v -0.02445524 0.03949887 0.10747053
v -0.03876071 0.01662456 0.11224755
v -0.03207897 0.02571527 0.11330841
v 0.01699238 0.02874179 0.1195156
v 0.00312588 0.03256887 0.11996817
v -0.00276387 0.04631903 0.10740943
v 0.01144867 0.05006311 0.08564685
v 0.0424678 0.01875446 0.107658
v 0.03658122 0.0285008 0.10751156
v 0.03415162 0.02247389 0.11352394
v -0.03745166 -0.00313331 0.11635745
v 0.00294327 0.04049662 0.11381246
v -0.0117918 0.02869785 0.12095916
v 0.01202996 0.03945307 0.11315039
v 0.02043647 0.0372159 0.11193652
v 0.00874197 0.04567552 0.10730916
v 0.02775353 0.02528945 0.11630895
v 0.02424675 0.01911702 0.12098435
v 0.03939557 0.01564384 0.11198016
v 0.02000039 0.04674435 0.08810525
v 0.02604099 0.038696 0.1069445
v 0.01966206 0.04209986 0.10729497
v 0.02490622 0.03136878 0.11437566
v 0.03172816 0.03402963 0.1071274
vn 0.99999 0.00086 -0.00335
vn 0.9942 0.1072 0.00913
vn 0.53177 0.18923 -0.82548
vn 0.93712 0.34887 -0.00967
vn 0.45571 0.20925 -0.86519
vn 0.79526 0.08544 -0.60022
vn -0.90411 -0.00539 -0.42726
vn -0.7023 0.71185 -0.00718
vn -0.29733 -0.36225 0.88339
vn -0.3443 -0.35408 0.86953
vn 0.50623 -0.32905 0.79715
vn 0.37964 0.92512 -0.00519
vn 0.41377 0.91038 0.00278
vn 0.15021 0.28182 -0.94764
vn 0.11809 0.2874 -0.9505
vn -0.25926 0.26425 -0.92895
vn 0.31468 0.25007 -0.91566
vn 0.29327 0.25423 -0.92161
vn 0.21978 0.2716 -0.93698
vn 0.95939 0.28199 0.00683
vn 0.62488 0.15237 -0.7657
vn -0.8668 -0.18689 0.46231
vn -0.9436 0.02599 -0.33007
vn -0.99887 0.00055 -0.04759
vn -0.62393 0.15603 -0.76574
vn -0.15693 0.28076 -0.94686
vn -0.14268 0.28361 -0.94827
vn -0.44871 0.89364 -0.00756
vn -0.25498 0.96694 0.00443
vn -0.19648 0.98049 -0.00534
vn -0.96825 0.24998 1E-05
vn 0.99053 0.00462 -0.13725
vn 0.03695 -0.22342 0.97402
vn 0.0097 -0.37674 0.92627
vn -0.04309 -0.37873 0.9245
vn 0.57179 -0.31034 0.75943
vn 0.91564 -0.14918 0.37328
vn 0.90661 -0.15696 0.39169
vn 0.69493 -0.2729 0.66528
vn -0.20403 0.08554 0.97522
vn -0.51272 -0.32542 0.79449
vn 0.03282 0.29368 -0.95534
vn 0.86155 0.50763 0.00707
vn 0.98744 0.05683 0.14741
vn 0.95102 0.27531 0.14056
vn 0.47443 0.0034 -0.88028
vn 0.76178 -0.00405 -0.64782
vn 0.80239 0.00477 -0.59679
vn 0.64788 0.00459 -0.76173
vn -0.97875 -0.05977 0.19617
vn -0.98857 -0.03979 0.14543
vn -0.96821 -0.00271 -0.25013
vn -0.68459 -0.27609 0.67462
vn -0.94647 0.00274 -0.32279
vn -0.98987 0.00469 -0.14193
vn -1 0.00159 -0.00139
vn -0.56755 0.17328 -0.8049
vn -0.74647 0.64816 0.15057
vn -0.05928 0.29233 -0.95448
vn -0.00834 0.29259 -0.9562
vn -0.28 0.94298 0.17999
vn -0.27806 0.93959 0.19963
vn -0.52653 0.8366 0.15123
vn -0.54701 0.82075 0.16479
vn -0.53205 0.84665 0.01067
vn 0.11016 0.99389 -0.00676
vn 0.17394 0.98475 0.00362
vn 0.97551 -0.00504 -0.21989
vn 0.92954 0.03095 -0.36741
vn 0.2336 -0.36872 0.89971
vn 0.20823 -0.36915 0.90574
vn -0.10232 -0.16168 0.98152
vn 0.39969 -0.19669 0.8953
vn 0.42018 -0.34139 0.84078
vn 0.75726 -0.25247 0.60235
vn 0.99639 -0.02702 0.08054
vn 0.98825 -0.04267 0.14676
vn -0.05123 -0.03136 0.99819
vn -0.10768 -0.12863 0.98583
vn -0.94978 -0.11269 0.29191
vn -0.25429 0.06373 0.96502
vn -0.52208 -0.32408 0.78893
vn -0.11582 -0.00254 -0.99327
vn 0.97853 -0.06023 0.19709
vn 0.78366 0.62117 -0.00415
vn 0.73915 0.67352 0.00512
vn 0.62939 0.77708 -0.00299
vn -0.76781 -0.2478 0.59082
vn -0.6978 0.12597 -0.70513
vn -0.74776 0.66396 0.00462
vn -0.04504 0.99896 0.00743
vn 0.93291 0.00626 -0.36007
vn 0.13919 0.09851 0.98535
vn -0.14267 -0.37178 0.91729
vn 0.09719 -0.19331 0.97631
vn -0.1549 -0.23971 0.95841
vn 0.31021 0.21266 0.92658
vn 0.4251 -0.23597 0.87385
vn 0.71166 0.01122 0.70244
vn 0.7051 0.01818 0.70887
vn -0.44224 0.24265 0.86345
vn -0.26085 -0.05089 0.96404
vn -0.16885 0.26537 0.94925
vn 0.28616 0.20825 0.93528
vn -0.32919 0.10232 0.9387
vn -0.00093 0.00319 -0.99999
vn 0.9766 0.03047 0.21289
vn 0.97568 0.08513 0.20199
vn 0.59439 -0.00343 -0.80417
vn 0.88834 -0.00627 -0.45914
vn -0.78622 0.04884 0.61602
vn -0.97698 0.01526 0.21277
vn -0.36646 0.23443 -0.90041
vn -0.40157 0.22688 -0.88728
vn 2E-05 -1 -6E-05
vn 4E-05 -1 -2E-05
vn -0 -1 0
vn 0 -1 0
vn 4E-05 -1 -5E-05
vn -0.0001 -1 -0
vn -0 -1 0
vn -0 -1 0
vn 3E-05 -1 1E-05
vn -2E-05 -1 3E-05
vn -7E-05 -1 4E-05
vn 0 -1 -2E-05
vn -0.00106 -1 5E-05
vn -0.92755 0.32818 0.17874
vn -0.87885 0.4771 0.00076
vn -0.87006 0.49294 -0.00282
vn -0.82303 0.5377 0.18307
vn -0.85243 0.47312 0.22253
vn -0.8732 0.46472 0.14684
vn -0.37993 0.00328 -0.92501
vn -0.43488 0.8819 0.18205
vn -0.5422 0.49762 0.67705
vn -0.25098 0.95445 0.16135
vn -0.06255 0.9828 0.17376
vn -0.95062 0.23711 0.20024
vn -0.97015 0.21541 0.11137
vn -0.97373 0.22764 0.00534
vn 0.05492 0.26932 0.96148
vn 0.10664 -0.09502 0.98975
vn 0.16968 0.08531 0.9818
vn 0.40302 0.05946 0.91326
vn 0.52542 0.13069 0.84075
vn 0.3092 -0.16412 0.93673
vn 0.68757 -0.18661 0.70173
vn -0.05879 0.03399 0.99769
vn -0.0348 0.06997 0.99694
vn -0.52897 0.14813 0.83561
vn -0.51119 0.15351 0.84565
vn -0.14308 0.21622 0.9658
vn 0.10431 0.32179 0.94105
vn 0.02736 0.26568 0.96367
vn -0.12612 0.38556 0.91402
vn -0.3844 -0.15036 0.91084
vn 0.13667 -0.00399 -0.99061
vn 0.13639 -0.00404 -0.99065
vn -0.14568 0.00171 -0.98933
vn -0.83854 0.06911 -0.54044
vn -0.71966 0.00337 -0.69432
vn 0.89545 0.40633 0.18183
vn 0.74271 0.64987 0.16143
vn 0.96009 0.22304 0.16876
vn 0.97689 0.12404 0.17409
vn 0.41696 -0.00415 -0.90892
vn 0.29222 0.0069 -0.95633
vn -0.75526 0.16719 0.63375
vn -0.97128 0.14821 0.18613
vn -2E-05 -1 0
vn -0 -1 1E-05
vn -9E-05 -1 -4E-05
vn -7E-05 -1 -4E-05
vn 0.00343 -0.99999 -0.00056
vn -0.0001 -1 3E-05
vn 0 -1 -0
vn -0 -1 0
vn -0.59898 -0.00387 -0.80076
vn -0.92817 0.32025 0.18956
vn -0.3671 0.90314 0.22265
vn -0.19494 0.71085 0.67579
vn -0.199 0.69083 0.69509
vn -0.34802 0.61014 0.71177
vn -0.34196 0.60722 0.71718
vn -0.64395 0.37578 0.66642
vn -0.62555 0.38029 0.68123
vn -0.38876 0.47454 0.78973
vn -0.43178 0.45486 0.77889
vn -0.54431 0.52691 0.65276
vn -0.82096 0.53475 0.20016
vn -0.04352 0.9852 0.16577
vn -0.97721 0.13459 0.16415
vn -0.26431 0.63141 0.72902
vn 0.1541 0.4546 0.87726
vn -0.13638 0.78679 0.60197
vn 0.13644 0.97499 0.17542
vn 0.17523 0.97147 0.15984
vn -0.07024 0.9744 0.21359
vn 0.64095 0.39699 0.65695
vn 0.48722 0.04228 0.87226
vn 0.20676 -0.2507 0.94573
vn 0.57396 -0.17969 0.79893
vn 0.58232 -0.19001 0.79044
vn -0.57556 0.33604 0.74552
vn -0.33449 0.26535 0.90427
vn -0.70448 -0.02069 0.70942
vn -0.60895 0.20604 0.76598
vn -0.04496 0.19229 0.98031
vn -0.05704 0.64652 0.76076
vn -0.04561 0.61201 0.78954
vn -0.06883 0.48799 0.87013
vn -0.12628 0.38623 0.91372
vn -0.51899 -0.26018 0.81422
vn -0.77121 -0.00475 -0.63656
vn -0.84604 0.00632 -0.53308
vn 0.60396 0.79701 0.00198
vn -0.6097 -0.15195 0.77793
vn -0.58251 -0.00053 -0.81283
vn -0.5463 0.81088 0.20982
vn -0.43354 0.87365 0.22086
vn -0.43049 0.87488 0.22194
vn -0.59293 0.77428 0.22118
vn -0.67454 0.71268 0.19254
vn -0.19629 0.55889 0.80567
vn 0.27642 -0.05146 0.95966
vn 0.19634 -0.01312 0.98045
vn 0.26562 0.58048 0.76973
vn 0.18175 0.56322 0.80607
vn 0.13212 0.71464 0.68691
vn 0.13964 0.96696 0.2133
vn 0.4974 0.32628 0.80383
vn 0.49405 0.32504 0.80639
vn 0.46597 0.24666 0.84972
vn 0.32629 0.23259 0.91621
vn 0.63844 0.33337 0.69373
vn 0.73208 -0.1114 0.67205
vn 0.5658 -0.05876 0.82245
vn 0.5157 -0.02078 0.85652
vn -0.87513 0.43182 0.21836
vn -0.64656 0.04608 0.76147
vn -0.36224 0.23952 0.90079
vn -0.30486 0.44055 0.84438
vn -0.08688 0.54782 0.83208
vn -0.38486 -0.1313 0.91359
vn -0.3461 -0.20032 0.91656
vn 0.50311 0.84122 0.19806
vn 0.82346 0.53742 0.18193
vn 0.85469 0.49088 0.16893
vn -0.66898 -0.1487 0.72825
vn -0.69779 -0.10904 0.70795
vn -0.35904 -0.00132 -0.93332
vn -0.46773 0.59973 0.64927
vn -0.67361 0.71043 0.20381
vn -0.71748 0.6605 0.22126
vn -0.00182 0.73905 0.67365
vn -0.14962 0.96136 0.2311
vn 0.23946 0.72876 0.64153
vn 0.27938 0.68437 0.67349
vn 0.4689 0.85654 0.21558
vn 0.82965 0.50468 0.23873
vn 0.31286 0.55937 0.7676
vn 0.80386 0.55578 0.21194
vn 0.52893 0.48295 0.69785
vn -0.6568 0.21691 0.72219
vn -0.29073 0.41576 0.86175
vn -0.58439 0.03664 0.81065
vn -0.54291 -0.04414 0.83863
vn -0.44789 -0.05936 0.89212
vn -0.42543 0.0384 0.90418
vn 0.12893 0.43716 0.89009
vn 0.92693 0.31039 0.21087
vn 0.90493 0.37435 0.2024
vn 0.04815 0.75999 0.64815
vn 0.05629 0.96885 0.24119
vn 0.93309 0.26967 0.23793
vn 0.51793 0.46989 0.71481
vn 0.32842 0.37953 0.86493
vn 0.72601 0.65239 0.2175
vn 0.71984 0.20884 0.66197
vn 0.59462 0.28676 0.75113
vn -0.71871 0.20188 0.66535
vn -0.65922 0.1753 0.73123
vn -0.49409 0.35503 0.79361
vn 0.12705 0.61015 0.78203
vn 0.61757 0.76053 0.20051
vn 0.58087 0.79077 0.19304
vn 0.40183 0.90146 0.16093
vn 0.52576 0.50886 0.68164
vn 0.39032 0.66601 0.63567
vn 0.30921 0.93303 0.18396
vn 0.30317 0.92496 0.22921
vn 0.38288 0.43799 0.81337
vn 0.37911 0.41217 0.82849
vn 0.6813 0.70464 0.19826
vn 0.67426 0.14538 0.72405
vn 0.63411 0.16827 0.75471
vn 0.43234 0.6082 0.66571
vn 0.46585 0.59349 0.65632
vn 0.29563 0.92843 0.22499
f 1//1 2//1 3//1
f 1//2 4//2 2//2
f 5//3 6//3 1//3
f 6//4 7//4 1//4
f 5//5 8//5 6//5
f 9//6 1//6 10//6
f 11//7 12//7 13//7
f 14//8 15//8 16//8
f 17//9 18//9 19//9
f 20//10 18//10 17//10
f 21//11 22//11 23//11
f 24//12 25//12 26//12
f 25//13 24//13 27//13
f 28//14 25//14 29//14
f 28//15 26//15 25//15
f 16//16 30//16 14//16
f 8//17 31//17 6//17
f 29//18 31//18 8//18
f 29//19 25//19 31//19
f 7//20 4//20 1//20
f 5//21 1//21 9//21
f 32//22 33//22 34//22
f 35//23 12//23 36//23
f 37//24 35//24 38//24
f 39//25 35//25 40//25
f 16//26 41//26 30//26
f 42//27 41//27 16//27
f 16//28 43//28 42//28
f 44//29 42//29 43//29
f 44//30 45//30 42//30
f 46//31 40//31 35//31
f 3//32 47//32 1//32
f 48//33 49//33 50//33
f 49//34 51//34 50//34
f 49//35 19//35 51//35
f 52//36 21//36 23//36
f 53//37 54//37 55//37
f 53//38 56//38 54//38
f 52//39 23//39 56//39
f 57//40 58//40 59//40
f 18//41 20//41 60//41
f 28//42 45//42 26//42
f 7//43 6//43 61//43
f 2//44 4//44 62//44
f 4//45 7//45 63//45
f 8//46 5//46 64//46
f 9//47 65//47 66//47
f 10//48 65//48 9//48
f 66//49 5//49 9//49
f 33//50 67//50 37//50
f 67//51 68//51 37//51
f 36//52 11//52 38//52
f 32//53 69//53 60//53
f 36//54 12//54 11//54
f 38//55 35//55 36//55
f 68//56 35//56 37//56
f 70//57 39//57 40//57
f 15//58 71//58 72//58
f 41//59 42//59 45//59
f 41//60 45//60 28//60
f 73//61 43//61 74//61
f 73//62 74//62 75//62
f 76//63 43//63 15//63
f 15//64 77//64 76//64
f 43//65 16//65 15//65
f 78//66 26//66 45//66
f 78//67 24//67 26//67
f 79//68 47//68 3//68
f 1//69 47//69 10//69
f 80//70 51//70 22//70
f 80//71 50//71 51//71
f 81//72 49//72 48//72
f 82//73 83//73 80//73
f 21//74 80//74 22//74
f 56//75 23//75 54//75
f 55//76 3//76 2//76
f 2//77 62//77 55//77
f 84//78 57//78 48//78
f 57//79 81//79 48//79
f 33//80 37//80 34//80
f 85//81 57//81 59//81
f 69//82 18//82 60//82
f 86//83 41//83 87//83
f 53//84 55//84 62//84
f 31//85 61//85 6//85
f 61//86 31//86 88//86
f 31//87 25//87 88//87
f 32//88 34//88 69//88
f 35//89 39//89 89//89
f 14//90 71//90 15//90
f 44//91 78//91 45//91
f 79//92 10//92 47//92
f 90//93 91//93 84//93
f 49//94 17//94 19//94
f 92//95 48//95 50//95
f 49//96 81//96 17//96
f 93//97 94//97 95//97
f 80//98 21//98 82//98
f 96//99 97//99 53//99
f 96//100 98//100 97//100
f 99//101 100//101 101//101
f 81//102 57//102 85//102
f 102//103 103//103 59//103
f 90//104 94//104 93//104
f 85//105 59//105 99//105
f 41//106 28//106 87//106
f 62//107 96//107 53//107
f 62//108 104//108 96//108
f 5//109 66//109 64//109
f 65//110 10//110 79//110
f 105//111 33//111 106//111
f 67//112 33//112 105//112
f 30//113 70//113 14//113
f 70//114 40//114 14//114
f 79//115 107//115 86//115
f 66//116 65//116 79//116
f 79//117 19//117 18//117
f 23//118 22//118 79//118
f 79//119 108//119 64//119
f 79//120 55//120 54//120
f 79//121 22//121 51//121
f 79//122 51//122 19//122
f 79//123 54//123 23//123
f 79//124 86//124 87//124
f 79//125 64//125 66//125
f 87//126 108//126 79//126
f 79//127 3//127 55//127
f 109//128 110//128 46//128
f 71//129 40//129 46//129
f 40//130 71//130 14//130
f 110//131 72//131 71//131
f 111//132 110//132 112//132
f 110//133 71//133 46//133
f 107//134 70//134 30//134
f 76//135 74//135 43//135
f 111//136 113//136 114//136
f 43//137 73//137 44//137
f 115//138 44//138 73//138
f 116//139 109//139 105//139
f 68//140 109//140 46//140
f 68//141 46//141 35//141
f 102//142 91//142 117//142
f 48//143 92//143 84//143
f 94//144 90//144 84//144
f 94//145 83//145 95//145
f 95//146 98//146 118//146
f 80//147 83//147 92//147
f 97//148 52//148 56//148
f 84//149 58//149 57//149
f 84//150 91//150 58//150
f 119//151 99//151 101//151
f 120//152 119//152 101//152
f 58//153 102//153 59//153
f 117//154 90//154 93//154
f 91//155 90//155 117//155
f 117//156 103//156 102//156
f 85//157 121//157 81//157
f 28//158 108//158 87//158
f 108//159 28//159 29//159
f 41//160 86//160 30//160
f 89//161 12//161 35//161
f 39//162 122//162 89//162
f 7//163 123//163 63//163
f 88//164 124//164 61//164
f 4//165 63//165 104//165
f 104//166 62//166 4//166
f 64//167 108//167 8//167
f 108//168 29//168 8//168
f 116//169 105//169 106//169
f 105//170 109//170 67//170
f 38//171 122//171 107//171
f 79//172 38//172 107//172
f 38//173 13//173 122//173
f 38//174 11//174 13//174
f 38//175 34//175 37//175
f 38//176 69//176 34//176
f 18//177 69//177 38//177
f 38//178 79//178 18//178
f 122//179 39//179 107//179
f 110//180 109//180 116//180
f 75//181 74//181 125//181
f 126//182 75//182 125//182
f 127//183 126//183 125//183
f 113//184 128//184 125//184
f 113//185 125//185 129//185
f 111//186 112//186 130//186
f 131//187 111//187 130//187
f 100//188 128//188 113//188
f 113//189 131//189 100//189
f 113//190 111//190 131//190
f 111//191 72//191 110//191
f 44//192 115//192 78//192
f 68//193 67//193 109//193
f 125//194 128//194 127//194
f 132//195 133//195 93//195
f 126//196 134//196 75//196
f 135//197 78//197 115//197
f 135//198 24//198 78//198
f 134//199 115//199 73//199
f 136//200 137//200 138//200
f 95//201 83//201 98//201
f 92//202 50//202 80//202
f 21//203 52//203 97//203
f 97//204 82//204 21//204
f 101//205 131//205 130//205
f 103//206 100//206 59//206
f 106//207 33//207 139//207
f 120//208 101//208 130//208
f 58//209 91//209 102//209
f 126//210 127//210 140//210
f 140//211 127//211 133//211
f 141//212 117//212 133//212
f 117//213 141//213 103//213
f 121//214 60//214 20//214
f 89//215 122//215 13//215
f 89//216 13//216 12//216
f 27//217 88//217 25//217
f 121//218 139//218 60//218
f 39//219 70//219 107//219
f 77//220 129//220 76//220
f 74//221 76//221 129//221
f 74//222 129//222 125//222
f 114//223 129//223 77//223
f 77//224 15//224 72//224
f 127//225 128//225 141//225
f 94//226 92//226 83//226
f 94//227 84//227 92//227
f 142//228 132//228 143//228
f 142//229 133//229 132//229
f 144//230 140//230 142//230
f 135//231 115//231 144//231
f 145//232 146//232 118//232
f 118//233 138//233 145//233
f 95//234 118//234 146//234
f 93//235 95//235 146//235
f 136//236 138//236 147//236
f 53//237 97//237 56//237
f 97//238 98//238 82//238
f 82//239 98//239 83//239
f 112//240 110//240 116//240
f 106//241 139//241 120//241
f 99//242 59//242 100//242
f 100//243 141//243 128//243
f 141//244 133//244 127//244
f 20//245 81//245 121//245
f 20//246 17//246 81//246
f 148//247 149//247 27//247
f 124//248 123//248 61//248
f 7//249 61//249 123//249
f 60//250 139//250 32//250
f 139//251 33//251 32//251
f 107//252 30//252 86//252
f 129//253 114//253 113//253
f 72//254 114//254 77//254
f 72//255 111//255 114//255
f 140//256 134//256 126//256
f 134//257 73//257 75//257
f 150//258 144//258 142//258
f 150//259 142//259 143//259
f 150//260 149//260 148//260
f 136//261 123//261 137//261
f 151//262 143//262 132//262
f 124//263 137//263 123//263
f 151//264 138//264 137//264
f 106//265 112//265 116//265
f 141//266 100//266 103//266
f 120//267 139//267 119//267
f 121//268 119//268 139//268
f 119//269 121//269 85//269
f 99//270 119//270 85//270
f 117//271 93//271 133//271
f 63//272 136//272 104//272
f 123//273 136//273 63//273
f 134//274 140//274 144//274
f 115//275 134//275 144//275
f 136//276 96//276 104//276
f 145//277 138//277 151//277
f 132//278 93//278 146//278
f 152//279 137//279 124//279
f 96//280 136//280 147//280
f 147//281 138//281 118//281
f 106//282 130//282 112//282
f 130//283 106//283 120//283
f 101//284 100//284 131//284
f 142//285 140//285 133//285
f 88//286 149//286 152//286
f 88//287 27//287 149//287
f 24//288 148//288 27//288
f 152//289 151//289 137//289
f 150//290 143//290 149//290
f 148//291 24//291 135//291
f 144//292 150//292 148//292
f 132//293 145//293 151//293
f 132//294 146//294 145//294
f 152//295 124//295 88//295
f 98//296 96//296 147//296
f 98//297 147//297 118//297
f 143//298 151//298 149//298
f 151//299 152//299 149//299
f 148//300 135//300 144//300
# Vertices: 152, normals: 300, texture coordinates: 0, faces: 300

