# File generated by ImageToStl.com - Free Image and 3D model conversion tools

o obj1
v -0.04312974 0.03459836 -0.25899419
v -0.04949126 0.10463165 -0.00797341
v -0.02759987 0.08840932 -0.17306627
v -0.02923685 0.01579637 0.03807478
v -0.03899925 0.01581243 0.02822887
v -0.00786015 -0.05141253 -0.21616571
v 0.01148656 0.05423613 -0.25899601
v -0.00797034 0.05458132 -0.25900286
v -0.00070698 0.0853749 -0.19883047
v 0.04521777 0.01581221 0.01617911
v 0.04524565 0.10101762 0.02439844
v 0.04014738 0.01580337 0.02631159
v 0.05258004 0.01742187 -0.25899994
v 0.05052605 0.10333768 0.003046
v 0.05508343 -0.00232089 -0.25900549
v 0.04766764 0.01586143 0.00572593
v 0.03128804 0.0158058 0.03658443
v 0.03051572 0.0989522 0.04205341
v 0.02016326 0.09824849 0.04819188
v -0.04900848 0.10188065 0.0147023
v -0.05040559 0.10393963 0.00026232
v -0.04766228 0.01586117 0.00578372
v -0.04541349 0.10101147 0.02388309
v -0.04035334 0.10017699 0.03225531
v -0.03866033 0.10833856 0.02470125
v -0.05029834 0.02237709 -0.25900191
v -0.02345279 -0.04798267 -0.22138196
v -0.04525238 0.01580491 0.01600197
v 0.03740907 0.0998212 0.03584199
v -0.01763224 0.01580559 0.04478584
v -0.00464902 0.09780196 0.05216833
v -0.01982528 0.0985332 0.04827473
v -0.00265461 0.01580484 0.04798355
v 0.01518215 0.11665079 0.03551679
v 0.01032229 0.12561689 0.02724103
v 0.00744547 0.11753853 0.03726395
v 0.04951393 0.10443844 -0.00803525
v 0.04347367 0.03401597 -0.25899845
v -0.01139253 0.08430267 -0.19969124
v -0.02223016 0.08404028 -0.1946997
v -0.02601602 0.0489773 -0.25899634
v -0.01576777 0.12820892 0.01070576
v -0.01643454 0.12526155 0.02505056
v -0.00421123 0.12898284 0.01653267
v -0.00297856 0.12574661 0.02892963
v -0.0341411 0.09932507 0.03909745
v -0.02539709 0.09856039 0.04544996
v -0.02712604 0.10532448 0.0393822
v 0.04460273 0.10930001 0.00972366
v 0.04858125 0.10181003 0.01587499
v 0.00570225 0.1297777 0.00786264
v -0.00680683 0.12951793 0.0113243
v 0.00823771 0.12888844 0.01470724
v 0.02026725 0.11714476 0.03224459
v 0.02160898 0.12462418 0.02148596
v 0.0271491 0.08821841 -0.17536695
v 0.01697029 0.0828636 -0.20084947
v 0.03097463 0.04575534 -0.25900117
v 0.01085047 0.08516531 -0.19791071
v 0.01017988 0.12939584 -0.00072146
v 0.01828582 0.1273739 -0.00525426
v 0.00864591 0.12841395 -0.00944393
v 0.05214648 -0.01747724 -0.24301142
v 0.05431744 -0.01011399 -0.25898623
v 0.0026027 0.10530273 0.04794676
v 0.01316998 0.10595708 0.04549113
v -0.02820138 0.12379808 0.01364592
v -0.03290267 0.12216429 0.00022611
v -0.04141763 0.1135004 0.00759432
v -0.01458198 0.12870917 0.00060812
v -0.00404661 0.12990427 0.00255941
v -0.0165431 0.12732436 -0.0078957
v -0.00633969 0.12911186 -0.00677255
v -0.034761 0.11653017 0.01719312
v -0.0434734 0.10821527 0.01584973
v -0.02843539 0.11837113 0.02355073
v -0.05397195 0.01154744 -0.25900689
v 0.00845737 0.09785523 0.05157974
v 0.014791 0.0157738 0.04593598
v -0.01481227 -0.05069391 -0.21956946
v -0.00514606 -0.05459716 -0.24545065
v -0.01115007 -0.05309109 -0.23390163
v -0.01158947 -0.05380883 -0.24852936
v 0.03306915 0.12164547 -0.00294267
v 0.02451148 0.12572934 -0.00205197
v 0.03142627 0.12290685 0.00690866
v 0.04019148 0.11528549 0.00394908
v 0.0425233 0.11299931 -0.00625599
v -0.00800155 0.10630486 0.04650224
v -0.000101 0.11759751 0.03815326
v 0.01821567 0.12791125 0.00818936
v 0.02316603 0.08495663 -0.19108889
v 0.04733937 0.10777651 -1.52E-05
v 0.01466618 0.08940523 -0.18327218
v -0.0202999 0.08992201 -0.17714992
v 0.00313473 -0.05512792 -0.25894773
v -0.0015008 -0.05408613 -0.23489054
v 0.03699152 -0.04083551 -0.23167086
v 0.02698096 0.10687432 0.03805551
v 0.0207982 0.10501045 0.04320906
v -0.02094429 0.12718201 0.00468544
v -0.01087702 0.08908524 -0.18600303
v 0.00036681 0.0898177 -0.18553609
v -0.02346109 0.12599598 -0.00338629
v -0.02187529 0.11739028 0.03087659
v -0.03089646 0.11055547 0.0311087
v -0.05501655 -0.00438795 -0.2589862
v -0.05321274 -0.01391077 -0.2455238
v 0.04112033 0.11205554 0.01354537
v 0.03251047 0.11744396 0.01946218
v 0.03867286 0.10798702 0.02525629
v 0.02652106 0.12410633 0.0157984
v -0.00599286 0.11586574 0.03904102
v -0.01587871 0.11145563 0.04019631
v -0.01321281 0.11895074 0.03389638
v 0.00995996 -0.05073706 -0.21436825
v 0.01740264 -0.05018106 -0.22098456
v -0.04106124 0.11469636 -0.00403508
v -0.01176321 -0.05389605 -0.25900078
v 0.00343462 -0.05152552 -0.21430045
v 0.02962862 0.11293332 0.02961675
v 0.04887228 -0.02542564 -0.23985581
v 0.04081934 -0.03712865 -0.23412198
v 0.04292606 -0.03447454 -0.25899976
v 0.04514406 -0.03160528 -0.23564163
v 0.03401229 -0.04346118 -0.25899947
v 0.01121145 -0.05397748 -0.25900576
v 0.01280377 -0.05344177 -0.24400555
v 0.02675569 -0.04816239 -0.23747671
v 0.02000726 -0.05122506 -0.23923919
v 0.02252808 -0.05027684 -0.25899729
v 0.03156544 -0.04520864 -0.23462951
v -0.04607093 -0.03023144 -0.2363998
v -0.0464919 -0.02970979 -0.25904915
v -0.04235111 -0.03531673 -0.23411095
v -0.04987117 -0.02352327 -0.24146934
v -0.0520371 -0.01809283 -0.25901556
v -0.03216451 -0.04484361 -0.23757833
v -0.03688599 -0.04084778 -0.25901291
v -0.02551265 -0.04891402 -0.25901735
v -0.02547159 -0.04878657 -0.23643596
v -0.03133791 -0.04468255 -0.22724953
v 0.04874828 -0.02571476 -0.25900164
v 0.00818003 -0.0534604 -0.2326183
v 0.02410363 -0.04818416 -0.22396514
v 0.03108927 -0.04412833 -0.22347696
v -0.01781716 0.08708146 -0.18898723
v -0.04972016 -0.00335146 -0.26455438
v -0.04970175 0.00347233 -0.26454365
v -0.03803707 -0.0398825 -0.23219627
v -0.01969495 -0.05136008 -0.24235602
v -0.01843524 -0.05127237 -0.23253338
vn -0.8486 0.50361 -0.16201
vn -0.23362 -0.94471 0.23009
vn 0.01594 0.88931 -0.45703
vn 0.89345 -0.04342 0.44705
vn 0.9915 0.12573 -0.03345
vn 0.99904 -0.03172 0.03016
vn 0.51194 -0.05164 0.85747
vn -0.99537 -0.02519 0.09271
vn -0.67607 0.57113 0.46554
vn -0.85689 -0.03829 0.51408
vn -0.85128 0.49943 -0.16091
vn -0.39758 -0.89463 0.20388
vn 0.67175 -0.04241 0.73956
vn -0.13926 -0.9602 0.24212
vn -0.25037 -0.04742 0.96699
vn -0.20848 -0.05491 0.97648
vn 0.22988 0.72444 0.64987
vn 0.86617 0.47535 -0.15423
vn -0.05323 0.89153 -0.44982
vn -0.26506 0.85301 -0.44957
vn -0.97261 -0.03898 0.22917
vn -0.16135 0.96815 0.19142
vn -0.10989 0.95899 0.26127
vn -0.70926 -0.05025 0.70316
vn -0.47241 0.51856 0.71268
vn -0.58972 -0.0445 0.80638
vn 0.79433 0.57728 0.18916
vn 0.98881 -0.02782 0.14658
vn 0.01367 0.99221 0.12385
vn 0.35296 0.74703 0.56335
vn 0.1949 0.95646 0.21724
vn 0.04099 0.96775 0.24856
vn 0.84738 0.50558 -0.16227
vn 0.35836 0.82374 -0.43935
vn 0.11845 0.88637 -0.44756
vn 0.16577 0.97631 -0.13906
vn 0.97999 -0.19419 0.04367
vn 0.99462 -0.09768 0.03457
vn 0.14126 0.61877 0.77276
vn -0.64676 0.75062 0.13519
vn -0.1542 0.97211 0.17672
vn -0.11414 0.99343 0.00784
vn -0.15809 0.97972 -0.12308
vn -0.67314 0.64764 0.357
vn -0.29092 0.93975 0.17956
vn -0.49224 0.76823 0.40929
vn -0.94207 0.31961 -0.1017
vn -0.60143 0.71576 -0.35492
vn -0.22672 0.86545 -0.44676
vn 0.03791 0.46203 0.88605
vn 0.04501 -0.04983 0.99774
vn 0.11626 -0.0592 0.99145
vn -0.33303 -0.91832 0.21396
vn -0.21258 -0.94874 0.23388
vn -0.14612 -0.98785 0.05286
vn -0.49986 -0.05384 0.86443
vn 0.93176 -0.03516 0.36137
vn 0.42648 0.9034 -0.04455
vn 0.65869 0.75229 0.01352
vn 0.67251 0.73999 -0.01211
vn -0.45182 -0.04954 0.89073
vn -0.37061 0.56592 0.73647
vn -0.19446 0.4897 0.84993
vn -0.06405 0.53578 0.84193
vn -0.04895 0.6157 0.78646
vn 0.16033 0.53171 0.83161
vn 0.2134 0.95971 0.18279
vn 0.14521 0.9866 0.07439
vn 0.64781 0.68965 -0.32361
vn 0.66638 0.67832 -0.30955
vn 0.76688 0.63108 0.11677
vn 0.05203 0.89117 -0.45068
vn 0.39428 0.81481 -0.425
vn 0.1924 0.92804 -0.31895
vn -0.14618 0.96663 -0.21036
vn 0.00945 -0.99894 0.04508
vn 0.64984 -0.74537 0.14879
vn 0.37618 0.6302 0.67922
vn 0.3759 0.63027 0.67931
vn -0.14662 0.98868 0.03176
vn -0.3102 0.94479 0.10557
vn -0.39522 0.9182 0.02667
vn -0.00938 0.99911 0.04108
vn -0.04785 0.94352 -0.32786
vn -0.24967 0.96323 -0.09928
vn -0.21967 0.97531 0.02252
vn -0.26788 0.96172 -0.05779
vn -0.30432 0.93157 -0.19893
vn -0.68706 0.67748 0.26263
vn -0.88946 -0.04376 0.45492
vn -0.66201 0.7119 0.23439
vn -0.75478 0.62149 0.20992
vn -0.7779 0.60718 0.16184
vn -0.47343 0.71154 0.51921
vn -0.58485 0.65148 0.48325
vn -0.74236 -0.04382 0.66856
vn -0.60207 0.60604 0.51984
vn -0.99781 0.0654 -0.00958
vn -0.67013 0.67751 -0.30316
vn 0.27911 -0.04442 0.95923
vn 0.2256 0.49802 0.83731
vn -0.99024 -0.13418 0.03777
vn 0.49245 -0.05583 0.86855
vn 0.75636 -0.04934 0.6523
vn 0.75465 0.60648 0.25037
vn 0.66125 0.65497 0.36574
vn 0.71454 0.68104 0.16006
vn 0.04335 0.96841 0.24556
vn 0.63869 0.72618 0.25443
vn 0.63736 0.72161 0.27028
vn 0.35948 0.93031 0.07283
vn 0.35585 0.93433 0.0197
vn 0.67897 0.71317 0.17432
vn -0.19232 0.62853 0.75363
vn -0.34412 0.70056 0.62513
vn 0.08874 0.76292 0.64038
vn 0.08199 0.75944 0.64539
vn 0.14662 0.98866 0.0325
vn 0.63248 0.75607 -0.16829
vn 0.40712 0.89397 -0.18729
vn 0.97195 0.22564 -0.06636
vn 0.74787 0.65506 0.10768
vn 0.04024 0.95689 -0.28765
vn 0.07815 0.94363 -0.32166
vn 0.19398 0.9267 -0.32185
vn 0.25166 0.93298 -0.25732
vn 0.02894 0.99915 -0.02935
vn 0.01523 0.99598 -0.08831
vn 0.26994 -0.93622 0.22498
vn 0.26231 -0.93804 0.22644
vn 0.23855 0.63801 0.73215
vn 0.02101 0.99555 0.09182
vn -0.10166 0.99305 -0.05935
vn -0.30819 0.93033 -0.19875
vn -0.58799 0.71514 0.37794
vn -0.61292 0.67228 0.41516
vn -0.49999 0.67822 0.53854
vn -0.76048 0.64867 -0.02992
vn -0.08236 -0.99654 -0.01134
vn -0.12631 -0.99194 0.01036
vn -0.99912 -0.02924 0.02999
vn -0.03151 -0.99091 0.13078
vn 0.58655 0.66525 0.46196
vn 0.54562 0.69743 0.46464
vn 0.72227 0.60299 0.33872
vn 0.70035 0.61613 0.36042
vn 0.97298 -0.03725 0.22786
vn 0.76736 0.63861 -0.05774
vn -0.21715 0.67219 0.70782
vn -0.16186 0.72947 0.66459
vn -0.20521 0.75986 0.61684
vn -0.06542 0.62241 0.77995
vn -0.25561 0.56741 0.78276
vn -0.34869 0.67263 0.65268
vn 0.46651 0.69793 0.54338
vn 0.31805 0.73035 0.60451
vn 0.09548 0.63297 0.76827
vn 0.41083 0.51553 0.75196
vn 0.42926 0.55221 0.7147
vn 0.3015 0.54711 0.78088
vn 0.2943 0.62168 0.72588
vn 0.27297 0.96131 -0.037
vn 0.28563 0.94478 0.16066
vn 0.81792 0.57507 -0.01758
vn 0.00726 0.97671 -0.21442
vn -0.07005 0.9478 -0.31108
vn -0.11468 0.97013 -0.21375
vn 0.93147 -0.358 0.06476
vn 0.78748 -0.61633 0.00093
vn 0.7099 -0.70414 -0.01501
vn 0.69354 -0.72039 -0.00639
vn 0.14113 -0.98978 0.02037
vn 0.41136 -0.91143 0.00874
vn 0.13944 -0.96002 0.24271
vn 0.5103 -0.85985 -0.01576
vn 0.52676 -0.84998 -0.00806
vn 0.51551 0.55813 0.65019
vn 0.02552 0.99289 -0.11626
vn -0.68921 0.7226 0.05319
vn -0.74505 0.66544 0.0456
vn -0.7025 0.60576 0.37355
vn -0.46621 0.63622 0.61472
vn -0.52796 0.58826 0.61254
vn -0.42958 0.88381 -0.1853
vn -0.95876 0.27165 -0.08362
vn -0.80742 -0.58998 0.00142
vn -0.90227 -0.43062 -0.0219
vn -0.57833 -0.81543 -0.02462
vn -0.45102 -0.88598 0.1078
vn -0.49252 -0.85076 0.18338
vn -0.51372 -0.85623 0.05446
vn 0.02752 -0.96807 0.24915
vn 0.55332 0.72397 0.41196
vn 0.65694 0.55701 0.50811
vn 0.82631 -0.03682 0.56201
vn 0.74749 0.64413 -0.16234
vn -0.11168 0.72718 0.6773
vn 0.22191 0.97434 -0.03779
vn 0.34251 0.91932 -0.19376
vn 0.194 0.95861 -0.2084
vn 0.22211 0.95264 -0.2077
vn 0.06238 0.97429 -0.21648
vn 0.92459 -0.38096 -0.00024
vn 0.94146 -0.33605 -0.02695
vn 0.73086 -0.67055 0.12728
vn 0.62524 -0.7804 0.00682
vn 0.03729 -0.99272 0.11452
vn 0.31081 -0.95045 -0.00596
vn 0.48053 -0.87204 0.09291
vn 0.6342 -0.75804 0.1522
vn 0.48367 -0.85538 0.18543
vn 0.58962 -0.80112 0.10278
vn -0.38152 0.92421 -0.01684
vn -0.16191 0.95132 -0.26224
vn -0.56574 0.58023 0.5859
vn -0.61612 0.76937 -0.16872
vn -0.7244 0.6701 -0.1619
vn -0.18269 0.9194 -0.34833
vn -0.13194 0.93732 -0.32253
vn -0.00585 -0.11356 -0.99351
vn 0.00715 -0.10043 -0.99492
vn -0.05238 -0.14785 -0.98762
vn 0.02617 -0.07774 -0.99663
vn -0.1351 -0.18996 -0.97245
vn 0.03653 -0.06187 -0.99742
vn 0.04487 -0.04454 -0.998
vn -0.49804 -0.23532 -0.83462
vn 0.04887 -0.03269 -0.99827
vn 0.05229 -0.01768 -0.99848
vn 0.05295 -0.00767 -0.99857
vn -0.04506 0.14397 -0.98856
vn -0.17537 0.20857 -0.96216
vn 0.00223 0.10598 -0.99437
vn -0.41483 0.24388 -0.87661
vn -0.60631 0.20602 -0.76808
vn 0.03093 0.07167 -0.99695
vn -0.75534 0.04867 -0.65352
vn -0.72485 0.00304 -0.6889
vn 0.04408 0.0467 -0.99794
vn 0.05033 0.02771 -0.99835
vn 0.05316 0.00702 -0.99856
vn 0.05286 0.00143 -0.9986
vn -0.72551 -0.68818 -0.00637
vn -0.94665 -0.3218 0.01726
vn -0.09074 -0.98973 0.1105
vn -0.16124 -0.97927 0.12259
vn -0.64545 -0.7638 -0.00021
vn -0.61081 -0.78941 0.06119
vn -0.40189 -0.91567 0.0059
vn -0.05053 -0.96761 0.24735
vn -0.05281 -0.96754 0.24715
vn 0.58912 0.60427 0.53647
vn -0.36456 0.57112 0.73547
vn 0.46131 0.64578 0.60841
vn 0.72756 0.68593 0.01258
vn 0.83277 -0.55351 -0.01109
vn 0.05197 -0.99723 0.0532
vn -0.33597 0.90357 -0.26587
vn -0.73712 0.58182 0.34372
vn -0.93171 -0.0352 0.3615
vn -0.70204 -0.15114 -0.69591
vn -0.977 -0.21236 -0.01931
vn -0.87166 -0.49009 0.00491
vn -0.09408 -0.99231 0.0805
vn -0.2222 -0.96929 0.10535
vn -0.64793 -0.74704 0.1487
vn -0.64633 -0.74834 0.14915
vn -0.50831 -0.86115 0.00578
vn 0.11884 -0.96253 0.24373
vn 0.53238 0.5996 0.59754
vn -0.39557 0.63792 0.66074
vn 0.79698 -0.59417 0.10852
vn 0.85691 -0.51546 0.00223
vn 0.10797 -0.99326 0.04222
vn 0.12024 -0.98352 0.13504
vn 0.29222 -0.95635 0.00313
vn -0.05452 0.9748 -0.21632
vn -0.27404 0.92055 -0.27838
vn -0.74657 -0.65384 0.12296
vn -0.75707 -0.653 -0.02111
vn -0.26068 -0.22787 -0.93815
vn -0.28034 -0.95982 0.01265
vn 0.87746 -0.47229 0.08371
vn 0.4052 -0.89164 0.20199
vn 0.36344 -0.90791 0.20882
vn 0.18591 -0.97429 0.12726
vn 0.49386 -0.86322 0.1047
vn -0.38033 -0.91942 0.1001
vn -0.3593 -0.93164 0.0544
vn -0.25957 -0.96482 0.0419
vn -0.23218 -0.97114 0.05463
vn 0.39551 -0.9153 0.07615
vn -0.82406 -0.55748 0.10068
vn -0.89177 -0.44554 0.07894
vn -0.34059 -0.94002 -0.01908
vn -0.95025 -0.30618 0.05726
vn -0.32184 -0.93758 0.13178
vn 0.3248 -0.94047 0.10013
vn 0.23546 -0.96733 0.09402
vn 0.23264 -0.96852 0.08858
f 1//1 2//1 3//1
f 4//2 5//2 6//2
f 7//3 8//3 9//3
f 10//4 11//4 12//4
f 13//5 14//5 15//5
f 15//6 14//6 16//6
f 17//7 18//7 19//7
f 20//8 21//8 22//8
f 23//9 24//9 25//9
f 5//10 24//10 23//10
f 1//11 26//11 2//11
f 27//12 5//12 28//12
f 29//13 18//13 17//13
f 30//14 4//14 6//14
f 31//15 32//15 30//15
f 31//16 30//16 33//16
f 34//17 35//17 36//17
f 37//18 13//18 38//18
f 39//19 9//19 8//19
f 40//20 8//20 41//20
f 28//21 20//21 22//21
f 42//22 43//22 44//22
f 44//23 43//23 45//23
f 4//24 46//24 5//24
f 47//25 48//25 46//25
f 46//26 4//26 47//26
f 14//27 49//27 50//27
f 50//28 16//28 14//28
f 51//29 52//29 53//29
f 35//30 54//30 55//30
f 53//31 35//31 55//31
f 45//32 35//32 44//32
f 56//33 37//33 38//33
f 7//34 57//34 58//34
f 57//35 7//35 59//35
f 60//36 61//36 62//36
f 63//37 64//37 16//37
f 64//38 15//38 16//38
f 65//39 66//39 36//39
f 67//40 68//40 69//40
f 42//41 44//41 52//41
f 70//42 52//42 71//42
f 72//43 70//43 73//43
f 74//44 75//44 25//44
f 67//45 43//45 42//45
f 67//46 76//46 43//46
f 77//47 2//47 26//47
f 1//48 40//48 41//48
f 40//49 39//49 8//49
f 78//50 65//50 31//50
f 31//51 33//51 78//51
f 78//52 33//52 79//52
f 27//53 80//53 5//53
f 6//54 5//54 80//54
f 81//55 82//55 83//55
f 4//56 30//56 47//56
f 50//57 11//57 10//57
f 84//58 85//58 86//58
f 86//59 87//59 84//59
f 84//60 87//60 88//60
f 47//61 30//61 32//61
f 32//62 48//62 47//62
f 31//63 89//63 32//63
f 89//64 31//64 65//64
f 65//65 90//65 89//65
f 65//66 78//66 66//66
f 91//67 53//67 55//67
f 91//68 51//68 53//68
f 92//69 38//69 58//69
f 56//70 38//70 92//70
f 93//71 49//71 14//71
f 9//72 59//72 7//72
f 92//73 58//73 57//73
f 92//74 59//74 94//74
f 73//75 95//75 72//75
f 81//76 96//76 97//76
f 98//77 16//77 10//77
f 99//78 54//78 100//78
f 100//79 54//79 34//79
f 70//80 42//80 52//80
f 42//81 101//81 67//81
f 101//82 68//82 67//82
f 51//83 71//83 52//83
f 102//84 103//84 39//84
f 72//85 104//85 70//85
f 42//86 70//86 101//86
f 101//87 70//87 104//87
f 3//88 104//88 95//88
f 74//89 69//89 75//89
f 23//90 28//90 5//90
f 69//91 74//91 67//91
f 20//92 75//92 69//92
f 20//93 69//93 21//93
f 76//94 105//94 43//94
f 76//95 25//95 106//95
f 46//96 24//96 5//96
f 106//97 25//97 24//97
f 77//98 107//98 21//98
f 1//99 3//99 40//99
f 19//100 78//100 79//100
f 78//101 19//101 66//101
f 107//102 108//102 22//102
f 79//103 17//103 19//103
f 29//104 17//104 12//104
f 50//105 49//105 109//105
f 110//106 111//106 109//106
f 49//107 87//107 109//107
f 53//108 44//108 35//108
f 86//109 112//109 109//109
f 112//110 110//110 109//110
f 91//111 112//111 86//111
f 85//112 91//112 86//112
f 109//113 87//113 86//113
f 113//114 114//114 89//114
f 115//115 43//115 105//115
f 45//116 36//116 35//116
f 36//117 45//117 90//117
f 91//118 60//118 51//118
f 56//119 84//119 88//119
f 85//120 84//120 56//120
f 37//121 14//121 13//121
f 93//122 87//122 49//122
f 59//123 9//123 94//123
f 103//124 94//124 9//124
f 59//125 92//125 57//125
f 94//126 56//126 92//126
f 51//127 60//127 71//127
f 73//128 71//128 60//128
f 116//129 117//129 12//129
f 116//130 12//130 17//130
f 36//131 66//131 34//131
f 52//132 44//132 53//132
f 73//133 70//133 71//133
f 104//134 72//134 95//134
f 74//135 76//135 67//135
f 74//136 25//136 76//136
f 105//137 76//137 106//137
f 21//138 118//138 2//138
f 96//139 81//139 119//139
f 119//140 81//140 83//140
f 107//141 22//141 21//141
f 120//142 6//142 97//142
f 111//143 110//143 121//143
f 121//144 110//144 55//144
f 11//145 50//145 109//145
f 111//146 11//146 109//146
f 50//147 10//147 16//147
f 93//148 37//148 88//148
f 114//149 113//149 115//149
f 115//150 113//150 45//150
f 115//151 45//151 43//151
f 89//152 90//152 113//152
f 114//153 32//153 89//153
f 105//154 114//154 115//154
f 55//155 54//155 121//155
f 34//156 54//156 35//156
f 90//157 65//157 36//157
f 19//158 18//158 100//158
f 99//159 100//159 18//159
f 100//160 66//160 19//160
f 66//161 100//161 34//161
f 91//162 85//162 61//162
f 112//163 91//163 55//163
f 93//164 14//164 37//164
f 73//165 62//165 103//165
f 9//166 39//166 103//166
f 102//167 95//167 73//167
f 122//168 63//168 16//168
f 123//169 124//169 125//169
f 123//170 126//170 124//170
f 123//171 98//171 126//171
f 96//172 127//172 128//172
f 129//173 130//173 131//173
f 79//174 116//174 17//174
f 129//175 131//175 126//175
f 132//176 129//176 126//176
f 29//177 99//177 18//177
f 60//178 62//178 73//178
f 118//179 69//179 68//179
f 118//180 21//180 69//180
f 25//181 75//181 23//181
f 105//182 106//182 48//182
f 106//183 46//183 48//183
f 104//184 3//184 68//184
f 21//185 2//185 77//185
f 133//186 134//186 135//186
f 136//187 137//187 134//187
f 138//188 139//188 140//188
f 141//189 27//189 142//189
f 28//190 142//190 27//190
f 141//191 142//191 138//191
f 120//192 79//192 33//192
f 110//193 112//193 55//193
f 11//194 111//194 29//194
f 11//195 29//195 12//195
f 37//196 56//196 88//196
f 45//197 113//197 90//197
f 60//198 91//198 61//198
f 61//199 85//199 56//199
f 62//200 61//200 94//200
f 94//201 61//201 56//201
f 94//202 103//202 62//202
f 63//203 122//203 143//203
f 63//204 143//204 64//204
f 98//205 123//205 16//205
f 98//206 132//206 126//206
f 97//207 144//207 120//207
f 131//208 130//208 127//208
f 132//209 145//209 129//209
f 146//210 98//210 10//210
f 10//211 145//211 146//211
f 132//212 98//212 146//212
f 68//213 101//213 104//213
f 147//214 95//214 102//214
f 24//215 46//215 106//215
f 118//216 68//216 3//216
f 2//217 118//217 3//217
f 147//218 39//218 40//218
f 39//219 147//219 102//219
f 96//220 119//220 148//220
f 127//221 96//221 148//221
f 148//222 119//222 140//222
f 131//223 127//223 148//223
f 148//224 140//224 139//224
f 126//225 131//225 148//225
f 148//226 124//226 126//226
f 148//227 134//227 137//227
f 148//228 143//228 124//228
f 148//229 64//229 143//229
f 148//230 15//230 64//230
f 149//231 41//231 8//231
f 1//232 41//232 149//232
f 149//233 8//233 7//233
f 149//234 26//234 1//234
f 77//235 26//235 149//235
f 7//236 58//236 149//236
f 149//237 107//237 77//237
f 149//238 148//238 107//238
f 58//239 38//239 149//239
f 149//240 38//240 13//240
f 13//241 15//241 149//241
f 15//242 148//242 149//242
f 150//243 135//243 139//243
f 136//244 108//244 137//244
f 97//245 6//245 82//245
f 82//246 6//246 80//246
f 138//247 150//247 139//247
f 138//248 142//248 150//248
f 140//249 151//249 141//249
f 30//250 6//250 120//250
f 120//251 33//251 30//251
f 29//252 111//252 121//252
f 114//253 48//253 32//253
f 99//254 121//254 54//254
f 88//255 87//255 93//255
f 124//256 143//256 125//256
f 96//257 144//257 97//257
f 95//258 40//258 3//258
f 20//259 23//259 75//259
f 20//260 28//260 23//260
f 137//261 107//261 148//261
f 137//262 108//262 107//262
f 133//263 136//263 134//263
f 97//264 82//264 81//264
f 152//265 82//265 80//265
f 142//266 28//266 22//266
f 142//267 22//267 150//267
f 138//268 140//268 141//268
f 120//269 116//269 79//269
f 29//270 121//270 99//270
f 114//271 105//271 48//271
f 16//272 123//272 125//272
f 122//273 125//273 143//273
f 128//274 144//274 96//274
f 144//275 116//275 120//275
f 128//276 127//276 130//276
f 103//277 102//277 73//277
f 95//278 147//278 40//278
f 135//279 150//279 22//279
f 139//280 135//280 134//280
f 134//281 148//281 139//281
f 151//282 119//282 83//282
f 125//283 122//283 16//283
f 10//284 12//284 145//284
f 12//285 117//285 145//285
f 116//286 144//286 117//286
f 132//287 146//287 145//287
f 27//288 141//288 152//288
f 141//289 151//289 152//289
f 152//290 151//290 83//290
f 152//291 83//291 82//291
f 145//292 130//292 129//292
f 133//293 135//293 22//293
f 136//294 133//294 22//294
f 151//295 140//295 119//295
f 108//296 136//296 22//296
f 152//297 80//297 27//297
f 117//298 130//298 145//298
f 130//299 144//299 128//299
f 144//300 130//300 117//300
# Vertices: 152, normals: 300, texture coordinates: 0, faces: 300

